<?xml version="1.0" encoding="UTF-8"?> <!-- Generator: Adobe Illustrator 24.2.0, SVG Export Plug-In . SVG Version: 6.00 Build 0) --> <svg xmlns="http://www.w3.org/2000/svg" xmlns:xlink="http://www.w3.org/1999/xlink" id="Layer_1" x="0px" y="0px" viewBox="0 0 100 100" style="enable-background:new 0 0 100 100;" xml:space="preserve"> <style type="text/css"> .st0{fill:#2452DD;} .st1{fill-rule:evenodd;clip-rule:evenodd;fill:#2452DD;} </style> <g> <g> <path class="st0" d="M83.97,34.03c-0.2-0.36-0.55-0.58-1.04-0.67c-0.24-0.04-0.54-0.05-0.8-0.06h-0.14 c-0.53-0.01-1.06-0.02-1.58-0.02H80.3c-1.6-0.01-3.2,0-4.7,0.02c-2.17,0.02-4.39,0.05-6.58,0.08c0.35-0.4,0.69-0.67,0.94-0.74 c0.84-0.25,2.4-1.68,2.89-2.33c0.06-0.09,0.12-0.14,0.21-0.18s0.18-0.07,0.28-0.11c0.09-0.03,0.17-0.06,0.26-0.09 c0.31-0.13,0.6-0.33,0.92-0.62c0.21-0.19,0.42-0.38,0.63-0.57c0.68-0.61,1.38-1.23,1.98-1.94c0.17-0.2,0.36-0.39,0.55-0.57 c0.09-0.09,0.18-0.17,0.26-0.26c0.22-0.22,0.54-0.56,0.46-0.94c-0.08-0.4-0.53-0.54-0.86-0.61c-0.59-0.12-1.61-0.07-2.28-0.04 l-0.22,0.01c-1.19,0.05-2.48,0.14-4.04,0.28c-1.3,0.12-2.36,0.24-3.32,0.37c-0.86,0.11-1.7,0.23-2.48,0.42 c-0.45,0.11-0.93,0.19-1.4,0.28c-0.19,0.03-0.37,0.07-0.55,0.1l-0.34,0.06c-1.2,0.22-2.44,0.46-3.65,0.69 c-4.36,0.85-7.94,1.62-11.28,2.42c-2.96,0.71-5.37,1.36-7.56,2.04c-4.25,1.31-7.92,2.94-10.91,4.82c-1.59,1-3.77,2.57-5.15,4.4 c-1.53,2.02-2.01,3.74-1.46,5.24c0.2,0.55,0.51,0.98,0.81,1.37l0.04,0.04c0.3,0.38,0.36,0.5,0.37,0.54c0,0.12-0.12,0.42-0.19,0.59 c-0.02,0.04-0.03,0.08-0.04,0.11c-0.21,0.54-0.32,0.98-0.36,1.44c-0.13,1.49,0.52,3.09,2,4.89c1.09,1.33,2.17,2.52,3.29,3.66 c0.05,0.05,0.11,0.11,0.17,0.17c0.35,0.34,0.82,0.81,0.98,1.18c0.03,0.07,0.05,0.15,0.07,0.22c0.19,0.76,0.21,2.2,0.03,2.9 c-0.02,0.08-0.14,0.33-0.72,1.05c-0.04,0.05-0.11,0.14-0.2,0.24c-0.38,0.45-0.72,0.87-0.78,1.05c-0.27,0.77-0.09,1.49,0.49,1.93 c0.13,0.1,0.36,0.23,0.63,0.38c0.5,0.27,1.18,0.65,1.24,0.89c0,0.01,0,0.02,0,0.03l0.01,0.13c0.02,0.42,0.05,0.82-0.17,1.19 c-0.32,0.53-1.11,0.76-2.36,0.69c-2.38-0.14-5-1.33-6.37-2.89c-0.59-0.67-1.72-2.33-1.51-3.18c0.03-0.13,0.11-0.23,0.19-0.26 c0.07-0.03,0.15-0.01,0.23,0.05c0.49,0.93,1.56,1.59,2.67,1.05c1.09-0.54,1.11-1.62,0.99-2.6c-0.12-0.97-1.29-1.98-2.09-2.34 c-0.82-0.36-2.4-0.26-3.17-0.05c-1.84,0.5-2.97,1.9-3.26,4.04c-0.34,2.48,0.74,5.24,2.95,7.57c2.33,2.45,5.64,4.14,9.32,4.76 c3.79,0.63,7.72,0.84,11.34,0.84c3.24,0,6.23-0.16,8.65-0.33c5.99-0.42,11.99-1.18,17.63-1.92c1.26-0.17,5.09-0.67,5.38-2.38 c0.09-0.52-0.04-1.01-0.37-1.43c-0.3-0.38-0.73-0.8-1.1-1.17c-0.11-0.11-0.21-0.21-0.31-0.31c-0.51-0.51-1-1.01-1.48-1.47 l-0.04-0.03c-0.36-0.27-1.2-0.09-1.54,0c-0.1,0.03-0.22,0.06-0.35,0.09c-1.57,0.43-4.85,1.32-6.03,0.65 c-1.04-0.59-1.69-1.63-1.69-2.72c0-0.38,0.13-0.72,0.35-0.91c0.16-0.14,0.36-0.19,0.59-0.15c0.71,0.11,1.38-0.82,1.54-1.73 c0.15-0.82-0.12-1.79-1.29-2.02c-1.06-0.21-2.66-0.06-3.71,0.03c-1.41,0.13-2.8,0.32-4.15,0.54c-0.31,0.02-0.73,0.23-0.95,0.43 c-0.7,0.62-0.65,1.58-0.49,2.28c0.17,0.75,0.46,1.24,0.92,1.54c0.13,0.09,0.28,0.15,0.43,0.21s0.29,0.12,0.39,0.2 c0.13,0.1,0.16,0.27,0.17,0.44c0.1,1.67-0.25,2.16-1.9,2.6c-1.34,0.35-3.03,0.52-4.15,0.63c-1.14,0.11-2.13,0.18-3.03,0.2h-0.08 c-0.49,0.02-1.3,0.04-1.72-0.06c-1.51-0.38-3.08-0.77-3.47-2.51c0.59,0.01,1.44-0.07,1.88-0.14c1.31-0.18,2.08-0.49,2.36-0.95 c0.63-1.04,0.44-1.84-0.59-2.47c-0.38-0.23-0.55-0.74-0.38-1.13c1.16-0.07,1.87-0.54,2.28-1.5c0.08-0.19,0.13-0.36,0.18-0.52 c0.03-0.09,0.06-0.19,0.09-0.29c0.03-0.02,0.06-0.04,0.09-0.06c0.05-0.04,0.11-0.08,0.17-0.14c0.16-0.17,0.29-0.39,0.4-0.72 c0.34-0.38,0.55-0.73,0.64-1.08c0.04-0.17,0.04-0.29,0.04-0.43c0-0.03,0-0.05,0-0.08c0.13-0.08,0.27-0.16,0.41-0.23l0.07-0.03 c0.31-0.16,0.62-0.32,0.91-0.51c0.81-0.53,1.38-1.19,1.73-2.02c0.17-0.1,0.35-0.18,0.52-0.25c0.91-0.36,1.44-0.66,2.16-1.42 c0.64-0.08,1.75-0.77,2.07-0.98c1.21-0.8,2.27-1.78,3.05-2.84c0.18-0.09,0.44-0.17,0.65-0.24l0.21-0.07 c0.44-0.15,0.9-0.3,1.35-0.46c1.38-0.52,2.43-1.13,3.22-1.87c1.98-0.22,4-0.64,5.32-2.24c0.27-0.13,0.63-0.23,0.92-0.3l0.04-0.01 c0.11-0.03,0.22-0.06,0.34-0.08c0.39-0.1,0.8-0.2,1.2-0.32c1.48-0.45,2.55-1.08,3.37-1.97c0.26-0.22,0.82-0.33,1.26-0.42 c0.13-0.03,0.26-0.05,0.36-0.08c1.03-0.25,1.76-0.69,2.35-1.42c0.15-0.09,0.33-0.16,0.49-0.23l0.07-0.03 c0.31-0.13,0.63-0.27,0.95-0.43c0.82-0.42,1.45-0.94,1.91-1.58c1.4,0.03,3.49-0.91,4.01-2.15C84.01,35.79,84.37,34.76,83.97,34.03 z M40.74,62.8l-0.02,0.02c-0.13,0.17-0.28,0.59-0.2,1.03c0.07,0.35,0.28,0.64,0.62,0.85c0.83,0.51,0.96,1.05,0.45,1.89 c-0.5,0.82-3.93,0.94-4.3,0.85l-0.08-0.02l0.01,0.08c0.24,2.45,2.44,2.98,3.62,3.26c0.08,0.02,0.16,0.04,0.24,0.06 c1.15,0.29,7.08-0.21,9.2-0.78c2.2-0.58,2.3-1.58,2.21-3.03c-0.04-0.68-0.38-0.81-0.75-0.96c-0.43-0.18-0.93-0.37-1.19-1.5 c-0.17-0.72-0.11-1.28,0.18-1.67c0.34-0.47,0.88-0.52,0.89-0.52c0.06-0.01,5.82-0.96,7.73-0.58c1.07,0.21,1.02,1.14,0.96,1.52 c-0.13,0.75-0.67,1.46-1.07,1.4c-0.35-0.05-0.67,0.03-0.93,0.25c-0.32,0.27-0.5,0.72-0.5,1.23c0,0.47,0.14,2.09,1.9,3.09 c1.37,0.78,5-0.23,6.36-0.61c0.14-0.04,0.25-0.07,0.34-0.09c0.9-0.24,1.17-0.08,1.17-0.08c0.03,0.03,2.5,2.47,2.86,2.92 c0.26,0.33,0.36,0.7,0.29,1.1c-0.15,0.9-1.92,1.62-4.98,2.02l-0.04,0.01c-10.22,1.35-25.67,3.39-37.49,1.41 c-3.59-0.6-6.81-2.24-9.08-4.63c-2.12-2.23-3.16-4.87-2.84-7.22c0.21-1.57,0.89-2.69,2.01-3.31c0.78-0.43,1.65-0.56,2.37-0.56 c0.71,0,1.27,0.12,1.46,0.21c0.96,0.43,1.77,1.41,1.84,2s0.21,1.69-0.76,2.17c-0.54,0.27-1,0.14-1.29-0.02 c-0.35-0.19-0.65-0.51-0.84-0.89c-0.04-0.09-0.34-0.25-0.62-0.22c-0.19,0.02-0.45,0.14-0.56,0.58c-0.22,0.88,0.64,2.46,1.6,3.56 c0.9,1.03,3.33,2.84,6.66,3.03c1.2,0.07,2.05-0.13,2.53-0.61c0.53-0.53,0.48-1.26,0.45-1.7c0-0.05-0.01-0.09-0.01-0.13 c-0.02-0.49-0.65-0.82-1.25-1.14c-0.28-0.15-0.57-0.31-0.79-0.47c-0.62-0.48-0.45-1.18-0.35-1.46c0.03-0.08,0.27-0.38,0.53-0.69 c0.49-0.6,1.1-1.34,1.18-1.68c0.13-0.52,0.23-2.04-0.03-3.11c-0.14-0.55-0.45-0.87-1.21-1.63c-0.7-0.71-1.76-1.78-3.39-3.77 c-2.65-3.21-1.94-4.99-1.51-6.06c0.12-0.29,0.21-0.52,0.2-0.71c-0.01-0.21-0.19-0.45-0.43-0.75c-0.78-1-2.08-2.67,0.59-6.18 c0.97-1.28,4.96-5.7,15.85-9.07c7.7-2.39,18.23-4.35,22.73-5.19c1.07-0.2,1.77-0.33,2.02-0.39c2.53-0.6,10.82-1.31,12.16-1.04 c0.32,0.07,0.5,0.16,0.53,0.27c0.05,0.18-0.24,0.47-0.59,0.81c-0.19,0.18-0.4,0.39-0.59,0.61c-0.59,0.69-1.22,1.26-1.9,1.86 c-0.22,0.2-0.45,0.4-0.68,0.61c-0.5,0.45-0.83,0.57-1.09,0.65c-0.24,0.08-0.43,0.14-0.62,0.41c-0.41,0.53-1.91,1.95-2.68,2.17 c-0.79,0.23-1.59,1.44-1.62,1.49l-0.06,0.09h0.11c0.13,0,13.5-0.23,14.59-0.03c0.36,0.06,0.61,0.22,0.75,0.48 c0.21,0.39,0.16,1.02-0.16,1.78c-0.43,1.02-2.46,2.02-3.8,1.88h-0.04l-0.02,0.03c-0.78,1.19-1.93,1.67-2.77,2.02 c-0.28,0.12-0.53,0.22-0.7,0.33l-0.01,0.01c-0.84,1.06-1.81,1.26-2.66,1.44c-0.53,0.11-0.99,0.21-1.32,0.5 c-1.29,1.41-3.08,1.86-4.38,2.19c-0.6,0.15-1.11,0.28-1.45,0.47l-0.02,0.01c-1.42,1.76-3.92,2.02-5.12,2.15l-0.11,0.01l-0.01,0.01 c-1.33,1.3-3.2,1.91-4.44,2.31c-0.47,0.15-0.85,0.28-1.05,0.39l-0.02,0.02c-1.67,2.32-4.39,3.73-4.93,3.73c-0.02,0-0.03,0-0.05,0 l-0.03-0.01l-0.02,0.02c-0.85,0.93-1.43,1.15-1.98,1.38c-0.27,0.11-0.53,0.21-0.81,0.39l-0.02,0.01l-0.01,0.02 c-0.56,1.42-1.64,1.99-2.43,2.4c-0.3,0.15-0.55,0.29-0.73,0.44l-0.02,0.02v0.02c-0.01,0.06-0.01,0.12-0.01,0.19 c0,0.31,0,0.7-0.62,1.36l-0.01,0.02c-0.19,0.56-0.37,0.68-0.5,0.77c-0.07,0.05-0.14,0.09-0.17,0.19 c-0.03,0.09-0.05,0.16-0.07,0.22c-0.03,0.12-0.06,0.25-0.21,0.59c-0.53,1.21-1.6,1.24-2.11,1.26L40.74,62.8z"></path> <path class="st0" d="M34.06,39.68c9.04-4.2,30.65-5.33,31.71-5.65c1.07-0.33,7.75-5.88,9.3-7.17s-0.48-1.08-1.45-1.02 c-0.97,0.07-1.47,0.14-1.73,0.85c-0.26,0.71-1.47,0.97-2.05,0.97s0.27-0.87-0.32-1.29c-0.6-0.42-2.31,0.03-3.21,0.65 c-0.34,0.23-0.12,1.56-1.34,1.66c-0.92,0.07-0.99-0.99-1.07-1.4c-0.13-0.65-3.94,0.52-3.94,0.52s-0.88,0.11-1.03,0.95 c-0.15,0.84-0.13,0.71-0.53,1.68c-0.41,0.97-1.19,1.81-2.1,2.39c-0.9,0.58-1.25-0.09-1.01-1.83s0.03-1.67-0.31-1.96 s-3.51,0.58-3.74,0.71c-0.23,0.13-0.53,0.23-0.76,1.2c-0.23,0.97-2.03,2.58-3.5,2.84c-1.47,0.26-0.16-1.2,0.42-2.04 c0.58-0.84-0.1-0.92-0.1-0.92s-1.92,0.21-2.37,0.73c-0.45,0.52-0.34,0.66-0.76,1.58s-3.81,3.55-3.33,2.55 c0.3-0.61,1.88-3.22,0.29-3.02c-0.98,0.13-2.29,0.77-3.36,1.14c-9.49,3.29-11.79,6.65-12.95,8.78c-1.16,2.13,0.52,3.83,0.52,3.71 C25.71,46.44,25.01,43.88,34.06,39.68z"></path> <path class="st0" d="M56.25,31.71c0.57,0,2.08-2.38,1.97-3c-0.11-0.62-1.81,0.19-1.81,0.19s-0.39,0.23-0.32,0.78 C56.15,30.23,55.68,31.71,56.25,31.71z"></path> <path class="st0" d="M36.49,55.83c-0.36,0.26-0.38,0.56-0.33,0.76c0.11,0.45,0.63,0.81,1.05,0.88c0.31,0.05,0.65-0.08,0.94-0.35 c0.27-0.26,0.43-0.61,0.39-0.86c-0.01-0.05-0.02-0.11-0.03-0.18c-0.06-0.27-0.12-0.6,0.07-0.88c0.18-0.26,0.56-0.44,1.13-0.54 c0.81-0.14,0.91-0.61,0.9-0.88c-0.03-0.65-0.73-1.43-1.34-1.48c-0.39-0.03-0.67-0.23-0.71-0.48c-0.04-0.22,0.07-0.81,1.77-1.54 c0.64-0.27,1.02-0.65,1.15-1.11c0.23-0.87-0.5-1.81-0.89-2.32c-0.1-0.12-0.18-0.23-0.2-0.28c-0.05-0.13-0.35-0.21-0.83-0.32 c-0.22-0.05-0.55-0.13-0.62-0.19c0.06-0.04,0.33-0.13,1.52-0.24c1.98-0.19,3.3-1.67,3.59-2.66c0.12-0.38,0.08-0.68-0.11-0.82 c-0.15-0.12-0.45-0.19-1.08,0.16c-1.6,0.89-2.95,0.78-3.92-0.33c-0.21-0.24-0.3-0.45-0.23-0.55c0.05-0.08,0.3-0.24,1.47,0.09 c1.34,0.38,1.99-0.06,2.47-0.38c0.17-0.11,0.31-0.21,0.45-0.24c0.23-0.05,0.31,0.03,0.44,0.15c0.16,0.15,0.36,0.34,0.88,0.36 c0.58,0.02,0.88-0.19,1.02-0.37c0.15-0.18,0.21-0.42,0.16-0.63c-0.03-0.12,0.03-0.33,0.23-0.51c0.15-0.13,0.59-0.42,1.38-0.14 c1.08,0.37,1.73-0.65,2.07-1.2c0.06-0.09,0.1-0.17,0.15-0.23c0.1-0.13,0.08-0.23,0.04-0.28c-0.2-0.33-1.49-0.16-1.87-0.1 c-0.05,0.01-0.14,0.02-0.26,0.04C42.8,38.82,31.82,40.81,28,45.52c-1.42,1.75-1.96,3.37-1.59,4.81c0.55,2.12,2.91,3.09,2.93,3.1 h0.02c0.04,0,0.06-0.03,0.13-0.12c0.19-0.24,0.63-0.82,1.26-0.47c0.37,0.2,0.33,0.42,0.29,0.64c-0.03,0.13-0.05,0.27,0.03,0.39 c0.07,0.1,0.21,0.17,0.45,0.21c0.45,0.07,0.75,0.23,0.89,0.46c0.14,0.22,0.15,0.51,0.04,0.89c-0.08,0.29-0.5,0.31-0.91,0.34 c-0.34,0.02-0.66,0.04-0.77,0.23c-0.06,0.11-0.04,0.25,0.06,0.44c0.06,0.11,0.11,0.21,0.17,0.31c0.47,0.84,0.91,1.63,0.82,3.89 c-0.09,2.37-0.81,3.25-1.29,3.83l-0.09,0.11c-0.08,0.1-0.17,0.19-0.26,0.29c-0.27,0.29-0.56,0.59-0.49,0.91 c0.05,0.24,0.29,0.45,0.73,0.65c1.3,0.58,1.4,1.64,1.45,2.15v0.03c0.01,0.08,0.05,0.12,0.09,0.14c0.03,0.02,0.07,0.03,0.12,0.03 c0.29,0,0.87-0.3,1.73-0.77c0.34-0.19,0.7-0.38,0.99-0.52c0.48-0.23,0.7-0.41,0.69-0.58c0-0.06-0.04-0.15-0.2-0.2 c-0.19-0.06-0.43-0.1-0.7-0.14c-0.63-0.1-1.41-0.21-2.06-0.71c-0.29-0.22-0.42-0.43-0.36-0.61c0.08-0.27,0.53-0.42,0.69-0.44 c0.06,0,0.33,0.02,0.65,0.05c1.77,0.17,2.74,0.21,2.84-0.02c0.03-0.06,0-0.12-0.07-0.19c-0.22-0.2-0.32-0.38-0.3-0.57 c0.03-0.28,0.32-0.58,0.88-0.92c0.61-0.37,0.31-0.91-0.03-1.53c-0.23-0.41-0.48-0.87-0.53-1.36c-0.06-0.67,0.13-0.74,0.32-0.82 c0.15-0.06,0.32-0.13,0.32-0.47c0-0.32-0.17-0.61-0.46-0.8c-0.49-0.32-1.25-0.28-2.08,0.1c-0.88,0.4-0.93,0.97-0.96,1.35 c-0.01,0.17-0.03,0.3-0.1,0.36c-0.06,0.05-0.17,0.06-0.33,0.03c-0.1-0.02-0.17-0.05-0.2-0.11c-0.09-0.19,0.15-0.63,0.38-1.05 c0.34-0.62,0.73-1.33,0.39-1.73c-0.15-0.18-0.19-0.37-0.1-0.58c0.21-0.51,1.08-0.94,1.53-0.97c0.22-0.01,0.34-0.14,0.35-0.34 c0.02-0.42-0.48-1.02-1.06-1.1c-0.82-0.12-1.01-0.5-1.12-0.71c-0.01-0.02-0.02-0.04-0.04-0.07c-0.16-0.3-0.5-0.91,0.84-1.76 c0.24-0.15,0.35-0.3,0.35-0.45c0-0.27-0.33-0.48-0.72-0.72c-0.41-0.26-0.88-0.56-0.9-0.94c-0.01-0.26,0.18-0.54,0.58-0.86 c1.68-1.32,1.16-2.12,0.75-2.77c-0.12-0.18-0.23-0.36-0.27-0.52c-0.08-0.31,0.09-0.67,0.39-0.83c0.57-0.3,1.41,0.08,2.25,1.02 c0.29,0.32,0.42,0.62,0.39,0.89c-0.05,0.46-0.53,0.8-0.99,1.13c-0.44,0.32-0.86,0.62-0.85,1c0,0.27,0.22,0.54,0.66,0.83 c0.42,0.28,0.64,0.56,0.68,0.85c0.05,0.45-0.34,0.88-0.71,1.29c-0.35,0.39-0.69,0.75-0.64,1.13c0.03,0.21,0.18,0.4,0.45,0.57 c0.96,0.61,1.5,1.24,1.52,1.79C36.94,55.34,36.79,55.61,36.49,55.83z"></path> <path class="st0" d="M52.14,37.36c-0.97,0.19-1.03,0.45-1.03,0.45c-0.07-0.19-0.65,1.42-1.74,2.58c-1.1,1.16-3.23,0.94-3.68,1.45 c-0.45,0.52-0.78,1.03-0.39,2.07s1.52,0.87,2.23,0.81c0.71-0.06,1.42-1.68,1.74-1.94c0.32-0.26,1.29-0.68,1.68,0.35 s-1.03,1.32-1.87,1.97s-0.19,1.84,1.39,1.62c1.58-0.23,1.52-1.29,1.9-1.42c0.39-0.13,1.84,0.1,2.36-0.93s-0.9-1-0.78-1.97 c0.13-0.97,2-1.03,3.29-0.19s0.48,0.27,3.36,0.78c2.87,0.5,1.67-0.96,4.07-0.78s0.61-2.1,1.13-1.52c0.52,0.58,3.26,0.55,2.94-0.29 c-0.33-0.84-0.09-0.54,1.1-0.13c1.19,0.4,0.65,0.71,2.52,0.71s0-1.36,1.55-1.03c1.55,0.32,2.39-0.65,3.03-1.48 c0.65-0.84-1.16-1.55-1.16-2.07s0.29-0.16,1.62,0.58c1.32,0.74,2.97-0.16,3.68-0.61s0.87-1.13-1.13-1.23 c-1.09-0.05-9.04,0.31-16.17,0.93C57.87,36.57,52.58,37.27,52.14,37.36z"></path> <path class="st0" d="M56.49,71.02c-0.33,0.36-0.95,1.02-2.79,1.91c-3.05,1.48-16.61,2.32-21.01-0.13l-0.02-0.01l-0.02,0.01 c-4.1,1.14-7.57-0.05-9.76-1.24c-2.79-1.53-4.6-3.67-5.14-5.12c-0.46-1.23-0.34-2.3-0.28-2.81c0.03-0.24,0.04-0.34-0.01-0.39 c-0.02-0.02-0.03-0.02-0.06-0.02c-0.16,0.01-0.29,0.47-0.35,0.92c-0.07,0.59-0.19,2.7,1.33,5.03c1.6,2.44,4.42,4.31,8.39,5.55 c3.24,1.01,7.76,1.36,12.46,1.36c4.14,0,8.43-0.27,12.11-0.6c8.4-0.75,16.14-2.06,16.54-2.48c0.15-0.15,0.2-0.31,0.15-0.47 c-0.15-0.53-1.35-0.85-1.4-0.86h-0.01h-0.01c-0.02,0.01-2.26,0.54-4.49,0.82c-2.25,0.18-3.72-0.82-4.51-1.37 c-0.19-0.13-0.34-0.23-0.46-0.29C56.83,70.65,56.73,70.77,56.49,71.02z"></path> <path class="st0" d="M42.55,59.51c1.05-0.37,1.53-1.07,1.53-2.19c0-0.11,0-0.22,0-0.31c-0.01-0.79-0.01-0.79,0.52-0.91 c0.65-0.14,1.74-0.78,1.96-1.46c0.2-0.6,0.31-0.6,0.66-0.6c0.33,0,2.02-0.49,2.47-1.24c0.06-0.1,0.11-0.18,0.15-0.25 c0.18-0.31,0.18-0.31,0.29-0.3c0.04,0,0.09,0.01,0.15,0.01c0.38,0,2.67-0.57,3.18-1.38c0.47-0.74,0.08-1.14,0-1.21 c-0.04-0.1-0.28-0.75-0.01-1.17c0.16-0.25,0.49-0.38,0.96-0.38c0.82,0,1.03-0.2,1.24-0.41c0.23-0.22,0.49-0.48,1.68-0.52 c1.3-0.04,1.43-0.24,1.56-0.58c0.08-0.21,0.17-0.45,0.74-0.7c0.73-0.33,1.36-0.37,1.81-0.4c0.43-0.03,0.71-0.05,0.73-0.32 c0.01-0.08-0.02-0.15-0.08-0.22c-0.25-0.27-1.11-0.27-1.68-0.27h-0.15c-0.21,0-0.49-0.15-0.83-0.33c-0.6-0.31-1.34-0.7-2.19-0.55 c-0.69,0.13-0.89,0.56-1.11,1.02s-0.45,0.94-1.18,1.23c-0.48,0.2-0.9,0.32-1.26,0.44c-0.74,0.23-1.23,0.38-1.49,0.89 c-0.17,0.34-0.96,0.81-1.82,1.1c-0.42,0.14-1.42,0.26-2.18-0.29c-0.62-0.45-0.94-1.22-0.95-2.29v-0.03l-0.02-0.02 c-0.82-0.59-2.12-0.91-2.83-0.69c-0.23,0.07-0.39,0.19-0.45,0.36c-0.21,0.54-0.25,0.55-0.71,0.72c-0.1,0.04-0.22,0.08-0.37,0.15 c-0.27,0.11-0.42,0.23-0.47,0.37c-0.06,0.15,0.02,0.3,0.09,0.44c0.05,0.09,0.1,0.19,0.11,0.28c0,0.03,0.01,0.08,0.02,0.14 c0.08,0.58,0.34,2.33-1.06,3.15c-0.71,0.42-1.06,0.81-1.03,1.15c0.02,0.32,0.37,0.48,0.47,0.52c0.19,0.08,0.77,0.83,0.75,1.54 c-0.02,0.52-0.34,0.88-0.97,1.09c-1.62,0.53-1.49,1.08-1.35,1.66c0.03,0.12,0.06,0.25,0.07,0.38v0.02 c0.06,0.74,0.19,2.29-1.11,2.91c-0.64,0.3-0.95,0.55-0.99,0.79c-0.04,0.23,0.14,0.42,0.34,0.65l0.04,0.04 c0.41,0.45,0.68,1.22,0.62,1.83c-0.01,0.11-0.02,0.2-0.03,0.28c-0.04,0.38-0.04,0.45,0.07,0.52c0.04,0.03,0.09,0.04,0.16,0.04 c0.08,0,0.17-0.02,0.28-0.06c0.43-0.16,0.98-0.63,1.13-1.42c0.1-0.52,0.55-0.61,1.03-0.71c0.52-0.1,1.06-0.21,1.17-0.86 c0.09-0.52-0.01-0.86-0.08-1.09C42.05,59.78,42.02,59.69,42.55,59.51z"></path> <path class="st0" d="M36.76,67.96l-0.01-0.01c-0.03-0.03-0.29-0.27-0.46-0.17c-0.15,0.08-0.17,0.34-0.08,0.82l0.01,0.02 c0.13,0.19,0.25,0.41,0.37,0.64c0.69,1.28,1.56,2.87,5.77,2.93c4.67-0.06,9-0.77,10.53-1.7c0.22-0.14,0.69-0.53,0.79-0.66 c0.93-1.08,1.51-2.93,1.57-3.85c0.04-0.63,0.57-0.8,1.03-0.94c0.12-0.04,0.24-0.07,0.34-0.12c0.27-0.12,0.35-0.32,0.31-0.46 c-0.04-0.13-0.21-0.26-0.54-0.2c-0.36,0.07-0.82,0.09-1.51,0.12c-0.37,0.02-0.81,0.04-1.35,0.08c-0.92,0.06-1.12-0.32-1.26-0.57 c-0.06-0.11-0.1-0.19-0.19-0.21c-0.06-0.01-0.13,0.01-0.22,0.07c-0.16,0.12-0.25,0.27-0.27,0.45c-0.04,0.41,0.29,0.8,0.39,0.91 c0.08,0.09,0.2,0.16,0.35,0.24c0.44,0.25,1.11,0.63,1.13,1.88c0.03,1.66-0.25,2.27-1.34,2.96c-1.1,0.7-6.72,1.66-10.75,1.45 c-3.97-0.21-4.6-3.62-4.6-3.65L36.76,67.96z"></path> <path class="st0" d="M66.08,42.82c-2.37-0.48-3.59,1.02-3.6,1.03S62.36,44,62.3,44.34c-0.01,0.22,0.1,0.45,0.27,0.6 c0.12,0.11,0.34,0.21,0.67,0.21c0.11,0,0.24-0.01,0.38-0.04c0.94-0.18,1.44-0.64,1.77-0.95l0.07-0.06 c0.33-0.3,1.12-0.44,1.46-0.44c0.01,0,0.01,0,0.02,0c0.11,0,0.61-0.04,0.63-0.24C67.6,43.28,67.44,43.09,66.08,42.82z"></path> <path class="st0" d="M21.17,68.65c1.07,0.99,3.33,2.28,5.26,2.72c0.79,0.18,1.46,0.25,2.04,0.25c1.02,0,1.74-0.22,2.22-0.46 c1.35-0.67,1.39-1.78,1.33-2.02c-0.02-0.08-0.06-0.1-0.09-0.11c-0.15-0.02-0.18,0.13-0.23,0.3c-0.1,0.43-0.3,1.32-2.16,1.73 c-2.59,0.58-7.14-1.36-9.02-3.84c-0.79-1.05-1.19-1.84-1.25-2.5c-0.09-1.01,0.22-1.41,0.35-1.54c0.34-0.31,1.1-0.67,1.79-0.04 c0.11,0.1,0.19,0.2,0.26,0.27c0.18,0.21,0.27,0.3,0.56,0.08c0.1-0.08,0.14-0.19,0.11-0.31c-0.08-0.34-0.67-0.81-1.48-0.98 c-0.43-0.09-0.84-0.02-1.27,0.21c-0.16,0.09-0.98,0.59-0.94,1.78v0.07C18.69,64.91,18.73,66.39,21.17,68.65z"></path> </g> <path class="st1" d="M84.35,20.78l-0.95,0.77c-0.16,0.13-0.25,0.21-0.27,0.26c-0.03,0.05-0.03,0.11-0.02,0.19 c0.01,0.07,0.05,0.15,0.12,0.24l0.08,0.1l-0.08,0.07l-1.29-1.6l0.08-0.07l0.08,0.1c0.07,0.09,0.15,0.15,0.22,0.17 c0.05,0.02,0.11,0.02,0.18,0c0.05-0.01,0.15-0.08,0.3-0.2l2.01-1.63c0.16-0.13,0.25-0.21,0.27-0.26c0.03-0.05,0.03-0.11,0.02-0.18 s-0.05-0.15-0.12-0.24l-0.08-0.1l0.08-0.07l1.3,1.6L86.2,20l-0.08-0.1c-0.07-0.09-0.15-0.15-0.22-0.18c-0.06-0.02-0.11-0.02-0.18,0 c-0.05,0.01-0.15,0.08-0.3,0.2l-0.87,0.7l0.88,1.08l0.86-0.7c0.16-0.13,0.25-0.21,0.27-0.26c0.03-0.05,0.03-0.11,0.02-0.19 c-0.01-0.07-0.05-0.15-0.12-0.24l-0.08-0.1l0.08-0.07l1.29,1.6l-0.08,0.07l-0.08-0.1c-0.07-0.09-0.15-0.15-0.22-0.18 c-0.05-0.02-0.11-0.02-0.18,0c-0.05,0.01-0.15,0.08-0.3,0.2l-2.01,1.63c-0.16,0.13-0.25,0.22-0.27,0.26 c-0.03,0.05-0.03,0.11-0.02,0.19s0.05,0.15,0.12,0.24l0.08,0.1l-0.08,0.07l-1.29-1.6l0.08-0.07l0.08,0.1 c0.07,0.09,0.15,0.15,0.22,0.17c0.05,0.02,0.11,0.02,0.18,0c0.05-0.01,0.15-0.08,0.3-0.2l0.94-0.77L84.35,20.78z M82.2,15.84 l-1.17,1.26l-0.12-0.11c-0.2-0.18-0.33-0.34-0.39-0.46c-0.06-0.13-0.08-0.26-0.05-0.41s0.12-0.29,0.26-0.45 c0.2-0.22,0.41-0.33,0.61-0.34s0.41,0.09,0.64,0.31L82.2,15.84z M80.88,17.25l-0.75,0.81c-0.15,0.16-0.25,0.24-0.3,0.27 c-0.06,0.02-0.12,0.02-0.19,0s-0.17-0.09-0.3-0.21l-0.07,0.08l1.47,1.37l0.07-0.08c-0.13-0.12-0.21-0.22-0.23-0.29 c-0.03-0.07-0.03-0.13-0.01-0.19c0.02-0.06,0.1-0.16,0.24-0.32l1.74-1.86c0.14-0.16,0.25-0.24,0.3-0.27c0.06-0.02,0.12-0.02,0.19,0 s0.17,0.09,0.3,0.21l0.07-0.08l-1.33-1.25c-0.35-0.32-0.63-0.54-0.83-0.64c-0.21-0.1-0.42-0.13-0.64-0.1s-0.42,0.14-0.58,0.31 c-0.2,0.21-0.28,0.46-0.26,0.74c0.02,0.18,0.09,0.37,0.23,0.58l-1.6,0.33c-0.21,0.04-0.35,0.06-0.41,0.06 c-0.1-0.01-0.19-0.05-0.27-0.12l-0.07,0.08l0.91,0.84l2.15-0.45L80.88,17.25z M78.41,13.13c0.13-0.17,0.2-0.3,0.2-0.39 c0.01-0.09-0.07-0.19-0.22-0.32l-0.1-0.08l0.07-0.08l1.66,1.3l-0.07,0.09l-0.11-0.08c-0.14-0.11-0.26-0.16-0.35-0.14 c-0.09,0.02-0.21,0.12-0.35,0.31l-1.59,2.04c-0.15,0.19-0.22,0.33-0.22,0.42c0.01,0.09,0.08,0.19,0.22,0.3l0.11,0.08l-0.07,0.08 l-1.66-1.3L76,15.28l0.1,0.08c0.14,0.11,0.26,0.16,0.35,0.14c0.09-0.02,0.21-0.12,0.35-0.31l1.31-1.68l-2.43,0.86 c-0.12,0.15-0.18,0.27-0.19,0.36c-0.02,0.1,0.06,0.2,0.22,0.33l0.11,0.08l-0.07,0.08l-1.66-1.3l0.07-0.08l0.1,0.08 c0.15,0.11,0.26,0.16,0.35,0.14c0.09-0.02,0.21-0.12,0.35-0.31l1.59-2.04c0.14-0.19,0.22-0.32,0.23-0.4s-0.07-0.19-0.23-0.31 l-0.1-0.08l0.07-0.08l1.66,1.3l-0.07,0.08L78,12.13c-0.14-0.11-0.26-0.15-0.35-0.13c-0.1,0.02-0.21,0.12-0.35,0.3L75.98,14 L78.41,13.13z M72.27,10.75l-0.59,1.06c-0.1,0.18-0.15,0.29-0.15,0.35s0.01,0.11,0.05,0.18c0.04,0.07,0.11,0.12,0.2,0.18l0.11,0.06 l-0.05,0.09l-1.8-1l0.05-0.09l0.11,0.06c0.1,0.06,0.19,0.08,0.27,0.08c0.06,0,0.11-0.02,0.17-0.07c0.04-0.03,0.11-0.13,0.21-0.3 l1.25-2.26c0.1-0.17,0.15-0.29,0.15-0.35c0.01-0.06-0.01-0.11-0.05-0.18C72.16,8.5,72.09,8.44,72,8.38l-0.1-0.05l0.05-0.09l1.8,1 l-0.05,0.1l-0.11-0.06c-0.1-0.06-0.19-0.08-0.27-0.08c-0.06,0-0.11,0.02-0.17,0.07c-0.04,0.03-0.11,0.13-0.21,0.3l-0.54,0.97 l1.22,0.67l0.54-0.97c0.1-0.18,0.15-0.29,0.16-0.35c0.01-0.05-0.01-0.11-0.05-0.18c-0.04-0.07-0.11-0.12-0.2-0.18l-0.11-0.06 l0.05-0.1l1.8,1l-0.05,0.1l-0.11-0.06c-0.1-0.06-0.19-0.08-0.27-0.08c-0.06,0-0.11,0.02-0.17,0.07c-0.04,0.03-0.11,0.13-0.21,0.3 l-1.25,2.26c-0.1,0.18-0.15,0.29-0.16,0.35c0,0.05,0.01,0.11,0.05,0.18c0.04,0.07,0.11,0.12,0.2,0.18l0.11,0.06l-0.05,0.09l-1.8-1 l0.05-0.09l0.11,0.06c0.1,0.05,0.19,0.08,0.27,0.08c0.06,0,0.11-0.02,0.17-0.07c0.04-0.03,0.11-0.13,0.2-0.3l0.59-1.07L72.27,10.75 z M68.77,9.58l0.02-1.47l-1.1,0.99L68.77,9.58z M68.77,9.81L67.5,9.25l-0.3,0.28c-0.1,0.09-0.17,0.18-0.2,0.25 c-0.04,0.1-0.04,0.19,0.02,0.28c0.03,0.05,0.14,0.12,0.32,0.22l-0.04,0.1l-1.2-0.53l0.04-0.1c0.14,0.04,0.27,0.03,0.39-0.02 s0.31-0.18,0.55-0.4l2.56-2.29l0.05,0.02l-0.02,3.52c0,0.34,0.02,0.56,0.07,0.66c0.04,0.08,0.11,0.15,0.21,0.21l-0.04,0.1 l-1.74-0.77l0.04-0.1l0.07,0.03c0.14,0.06,0.25,0.09,0.32,0.07c0.05-0.01,0.09-0.04,0.11-0.09c0.02-0.03,0.02-0.07,0.03-0.11 c0-0.02,0.01-0.1,0.01-0.23L68.77,9.81z M67.41,6.06l-0.33,1.01l-0.1-0.03C67,6.79,66.99,6.6,66.95,6.48s-0.11-0.24-0.21-0.34 c-0.06-0.06-0.18-0.11-0.35-0.17l-0.28-0.09l-0.94,2.89c-0.06,0.19-0.09,0.31-0.08,0.37c0.01,0.05,0.03,0.11,0.08,0.16 c0.05,0.06,0.13,0.1,0.23,0.14l0.12,0.04l-0.03,0.1l-1.96-0.63l0.03-0.1l0.12,0.04c0.11,0.03,0.2,0.04,0.28,0.03 c0.06-0.01,0.11-0.04,0.16-0.1c0.04-0.04,0.08-0.15,0.14-0.34l0.94-2.89L64.94,5.5c-0.25-0.08-0.45-0.09-0.6-0.02 c-0.21,0.1-0.38,0.28-0.51,0.54l-0.1-0.03l0.33-1.01L67.41,6.06z M61.62,6.96L61.41,5.5l-0.93,1.15L61.62,6.96z M61.66,7.19 l-1.34-0.36l-0.26,0.33c-0.09,0.11-0.14,0.2-0.16,0.29c-0.03,0.11-0.01,0.2,0.07,0.27c0.04,0.04,0.16,0.1,0.35,0.17l-0.03,0.1 l-1.26-0.34l0.03-0.1c0.14,0.02,0.27-0.01,0.38-0.08c0.11-0.07,0.27-0.23,0.48-0.49l2.17-2.67l0.06,0.01l0.53,3.48 c0.05,0.33,0.11,0.54,0.17,0.64c0.05,0.08,0.13,0.13,0.24,0.17l-0.03,0.1l-1.84-0.49l0.03-0.1l0.07,0.02 c0.15,0.04,0.26,0.05,0.33,0.02c0.05-0.02,0.08-0.05,0.1-0.11c0.01-0.03,0.01-0.07,0.01-0.11c0-0.02-0.01-0.1-0.03-0.23L61.66,7.19 z M55.54,3.07l2.01,0.35l-0.02,0.11l-0.07-0.01c-0.19-0.03-0.33-0.02-0.4,0.04C57,3.62,56.94,3.74,56.91,3.94l-0.2,1.16 c0.27,0.05,0.44,0.07,0.52,0.06c0.08,0,0.17-0.04,0.25-0.12c0.08-0.07,0.18-0.23,0.29-0.47C57.89,4.3,58,4.09,58.09,3.96 s0.21-0.23,0.35-0.29s0.3-0.08,0.48-0.05s0.32,0.11,0.41,0.23c0.09,0.12,0.12,0.26,0.1,0.41c-0.02,0.12-0.07,0.2-0.16,0.26 c-0.09,0.06-0.18,0.07-0.29,0.06c-0.22-0.04-0.31-0.18-0.29-0.44c0.02-0.13-0.02-0.2-0.1-0.21c-0.08-0.02-0.17,0.02-0.25,0.11 s-0.17,0.25-0.29,0.49c-0.11,0.23-0.2,0.41-0.27,0.52s-0.16,0.2-0.27,0.27c0.12,0.05,0.2,0.11,0.26,0.17 c0.06,0.06,0.11,0.13,0.15,0.22c0.04,0.09,0.12,0.31,0.24,0.66l0.27,0.77c0.04,0.12,0.1,0.2,0.18,0.27s0.17,0.11,0.29,0.13 l-0.02,0.11l-1.3-0.23L57.05,5.8c-0.06-0.18-0.11-0.3-0.15-0.34s-0.12-0.08-0.25-0.11l-0.23,1.31c-0.03,0.19-0.02,0.31,0.05,0.38 s0.2,0.12,0.41,0.15L56.87,7.3l-2.02-0.36l0.02-0.11c0.22,0.04,0.37,0.03,0.46-0.02c0.08-0.05,0.14-0.18,0.17-0.38l0.46-2.59 c0.04-0.23,0.04-0.39,0-0.47c-0.04-0.09-0.16-0.15-0.36-0.18l-0.08-0.02L55.54,3.07z M51.03,2.92c-0.36-0.01-0.64,0.17-0.83,0.54 c-0.16,0.3-0.24,0.73-0.25,1.29c-0.01,0.67,0.1,1.17,0.33,1.49c0.16,0.23,0.39,0.34,0.69,0.35c0.2,0,0.36-0.04,0.5-0.13 c0.17-0.12,0.31-0.32,0.41-0.59s0.15-0.62,0.16-1.06c0.01-0.52-0.03-0.91-0.12-1.17s-0.21-0.44-0.36-0.55 C51.39,2.99,51.22,2.93,51.03,2.92z M50.99,2.74c0.63-0.01,1.13,0.18,1.52,0.57c0.39,0.4,0.57,0.89,0.56,1.47 c-0.01,0.5-0.16,0.93-0.46,1.31c-0.39,0.5-0.94,0.74-1.65,0.73c-0.71-0.01-1.25-0.26-1.63-0.75c-0.3-0.39-0.44-0.84-0.43-1.36 c0.01-0.58,0.22-1.07,0.62-1.45C49.92,2.88,50.41,2.7,50.99,2.74z M44.84,3.05l3.46-0.24l0.07,1.06l-0.11,0.01 c-0.06-0.26-0.14-0.44-0.22-0.54s-0.17-0.17-0.28-0.19s-0.31-0.02-0.62,0l-0.8,0.05l0.21,3.05c0.02,0.22,0.06,0.36,0.12,0.41 c0.07,0.06,0.19,0.08,0.36,0.07l0.1-0.01l0.01,0.11l-2.05,0.14l-0.01-0.11l0.11-0.01c0.17-0.01,0.28-0.05,0.34-0.12 c0.06-0.07,0.08-0.21,0.06-0.42L45.4,3.6c-0.01-0.18-0.05-0.3-0.1-0.37c-0.06-0.07-0.17-0.1-0.36-0.09l-0.12,0.01L44.84,3.05z M42.07,3.61c-0.35,0.06-0.59,0.29-0.71,0.69c-0.1,0.32-0.1,0.76,0,1.32c0.12,0.66,0.32,1.13,0.61,1.4 c0.2,0.19,0.45,0.26,0.74,0.21c0.2-0.03,0.35-0.11,0.47-0.23c0.15-0.15,0.24-0.37,0.29-0.65c0.05-0.29,0.03-0.64-0.04-1.07 c-0.09-0.51-0.21-0.89-0.35-1.12c-0.14-0.24-0.29-0.4-0.46-0.47C42.44,3.6,42.27,3.57,42.07,3.61z M42.01,3.43 c0.61-0.13,1.15-0.04,1.6,0.27c0.45,0.32,0.73,0.76,0.83,1.34c0.09,0.49,0.02,0.95-0.2,1.37c-0.29,0.56-0.79,0.9-1.48,1.03 c-0.7,0.12-1.28-0.02-1.74-0.42c-0.37-0.32-0.59-0.74-0.69-1.25c-0.1-0.58,0.01-1.09,0.33-1.54C40.98,3.77,41.43,3.51,42.01,3.43z M37.08,6.7l0.31,1.18c0.05,0.19,0.1,0.31,0.13,0.36c0.04,0.04,0.09,0.07,0.16,0.09s0.16,0.01,0.27-0.01l0.12-0.03l0.03,0.1 l-1.99,0.53l-0.03-0.1l0.13-0.03c0.11-0.03,0.19-0.07,0.25-0.13c0.04-0.04,0.07-0.09,0.08-0.16c0.01-0.05-0.01-0.17-0.06-0.36 l-0.67-2.5c-0.05-0.19-0.09-0.31-0.13-0.35c-0.03-0.04-0.09-0.08-0.16-0.1s-0.16-0.01-0.27,0.01l-0.12,0.03l-0.03-0.1l1.99-0.53 l0.03,0.1l-0.13,0.03c-0.11,0.03-0.19,0.07-0.25,0.13c-0.04,0.04-0.07,0.09-0.08,0.16c-0.01,0.05,0.01,0.17,0.07,0.36l0.29,1.08 l1.34-0.36l-0.29-1.08c-0.05-0.19-0.1-0.31-0.13-0.36c-0.03-0.04-0.09-0.07-0.16-0.09s-0.16-0.02-0.27,0.01l-0.12,0.03l-0.03-0.1 l1.98-0.53l0.03,0.11l-0.12,0.03c-0.11,0.03-0.2,0.07-0.25,0.13c-0.04,0.04-0.07,0.1-0.08,0.17c-0.01,0.05,0.02,0.17,0.07,0.36 l0.67,2.5c0.05,0.19,0.1,0.31,0.13,0.36c0.03,0.04,0.09,0.07,0.16,0.09s0.16,0.02,0.27-0.01l0.12-0.03l0.03,0.1l-1.98,0.53 l-0.03-0.1l0.12-0.03c0.11-0.03,0.2-0.07,0.25-0.13C38.76,8,38.79,7.95,38.8,7.87c0.01-0.05-0.01-0.17-0.07-0.36l-0.31-1.17 L37.08,6.7z M32.78,6.27l0.61,1.59c0.06-0.02,0.11-0.04,0.14-0.05c0.22-0.08,0.36-0.21,0.43-0.39s0.05-0.4-0.06-0.68 c-0.1-0.27-0.24-0.45-0.41-0.53c-0.17-0.08-0.37-0.08-0.61,0.02L32.78,6.27z M33.47,8.07l0.39,1.02c0.08,0.2,0.14,0.32,0.18,0.36 s0.1,0.07,0.17,0.07c0.08,0.01,0.2-0.02,0.36-0.08l0.04,0.1l-1.87,0.72l-0.04-0.1c0.17-0.07,0.28-0.12,0.33-0.18 c0.05-0.05,0.07-0.11,0.08-0.17c0-0.06-0.03-0.19-0.11-0.39l-0.9-2.39c-0.08-0.2-0.14-0.32-0.18-0.36s-0.1-0.07-0.18-0.07 c-0.07-0.01-0.19,0.02-0.36,0.09l-0.04-0.1l1.6-0.62c0.53-0.2,0.94-0.25,1.24-0.15c0.3,0.1,0.5,0.29,0.61,0.57 c0.09,0.24,0.1,0.47,0.01,0.7c-0.08,0.23-0.24,0.42-0.48,0.58C34.17,7.78,33.88,7.91,33.47,8.07z M29.69,7.42l1.18-0.58l0.05,0.1 c-0.12,0.07-0.2,0.16-0.24,0.28c-0.04,0.12-0.06,0.33-0.07,0.63l-0.05,2.7c-0.01,0.42-0.05,0.7-0.14,0.84s-0.22,0.26-0.39,0.34 c-0.19,0.09-0.36,0.11-0.5,0.06c-0.15-0.06-0.25-0.15-0.31-0.27c-0.05-0.1-0.06-0.2-0.02-0.31c0.04-0.1,0.1-0.17,0.2-0.22 s0.17-0.06,0.24-0.03c0.07,0.03,0.14,0.1,0.22,0.22c0.09,0.14,0.19,0.19,0.3,0.13c0.12-0.06,0.18-0.23,0.18-0.52v-0.13l-2.39-1.68 c-0.2-0.14-0.36-0.22-0.46-0.24c-0.11-0.02-0.24,0-0.39,0.07l-0.05-0.1l1.76-0.86l0.05,0.1l-0.07,0.03c-0.2,0.1-0.28,0.2-0.24,0.3 c0.02,0.04,0.06,0.08,0.14,0.13l1.67,1.18l0.03-1.65c0-0.23-0.01-0.38-0.05-0.46c-0.03-0.06-0.08-0.09-0.15-0.11 c-0.07-0.01-0.22,0.03-0.45,0.14L29.69,7.42z M23.5,10.89l2.94-1.84l0.57,0.9l-0.09,0.06c-0.18-0.2-0.33-0.33-0.45-0.38 s-0.23-0.07-0.34-0.04s-0.29,0.13-0.55,0.29L24.9,10.3l1.62,2.59c0.12,0.19,0.22,0.29,0.31,0.31s0.2-0.02,0.35-0.11l0.08-0.05 l0.06,0.09l-1.74,1.09l-0.06-0.09l0.09-0.06c0.15-0.09,0.23-0.18,0.25-0.27s-0.03-0.22-0.14-0.4l-1.44-2.3 c-0.1-0.15-0.18-0.24-0.27-0.28c-0.08-0.04-0.2-0.01-0.36,0.09l-0.11,0.07L23.5,10.89z M22.22,12.7c-0.13-0.17-0.24-0.26-0.33-0.29 s-0.21,0.02-0.36,0.14l-0.1,0.08l-0.07-0.08l1.66-1.3l0.07,0.09l-0.11,0.08c-0.14,0.11-0.22,0.21-0.22,0.3s0.07,0.23,0.21,0.42 l1.59,2.04c0.15,0.19,0.27,0.29,0.36,0.31s0.21-0.03,0.35-0.14l0.11-0.08l0.07,0.08l-1.66,1.3l-0.07-0.08l0.1-0.08 c0.15-0.11,0.22-0.22,0.22-0.31s-0.07-0.23-0.22-0.42l-1.31-1.68l0.25,2.57c0.12,0.15,0.21,0.24,0.3,0.28s0.21-0.01,0.37-0.13 l0.11-0.08l0.07,0.08l-1.66,1.3L21.88,17l0.1-0.08c0.14-0.11,0.22-0.22,0.22-0.31s-0.07-0.23-0.21-0.42l-1.59-2.04 c-0.15-0.19-0.26-0.29-0.34-0.32s-0.2,0.03-0.36,0.15l-0.1,0.08l-0.07-0.08l1.66-1.3l0.07,0.08l-0.11,0.08 c-0.14,0.11-0.21,0.21-0.21,0.31s0.07,0.23,0.2,0.41l1.33,1.7L22.22,12.7z M17.5,16.91c-0.18,0.18-0.28,0.34-0.31,0.47 c-0.03,0.13,0,0.29,0.07,0.46c0.07,0.17,0.2,0.36,0.39,0.56c0.22,0.23,0.41,0.38,0.58,0.45c0.17,0.07,0.32,0.08,0.46,0.04 c0.14-0.04,0.27-0.13,0.41-0.26L17.5,16.91z M19.8,17.99c0.14-0.13,0.23-0.26,0.29-0.39c0.05-0.13,0.04-0.29-0.03-0.48 c-0.07-0.19-0.22-0.41-0.44-0.65c-0.18-0.19-0.36-0.32-0.53-0.41c-0.17-0.08-0.33-0.1-0.46-0.07c-0.13,0.04-0.28,0.12-0.43,0.27 L19.8,17.99z M16.58,16.72l1.49-1.39l0.07,0.08c-0.16,0.16-0.25,0.27-0.26,0.35s0.05,0.2,0.17,0.34c0.33-0.3,0.61-0.5,0.85-0.58 s0.49-0.11,0.75-0.07s0.5,0.16,0.7,0.38c0.25,0.27,0.38,0.61,0.37,1c-0.01,0.39-0.26,0.83-0.77,1.3c0.1,0.1,0.17,0.16,0.24,0.19 s0.13,0.03,0.19,0c0.06-0.03,0.16-0.09,0.3-0.2l0.07,0.08l-1.49,1.39l-0.07-0.08c0.17-0.17,0.26-0.3,0.26-0.39 s-0.07-0.21-0.19-0.34c-0.33,0.31-0.64,0.51-0.91,0.59c-0.28,0.08-0.54,0.09-0.78,0.03s-0.45-0.19-0.63-0.38 c-0.19-0.2-0.3-0.44-0.34-0.72c-0.04-0.28,0.01-0.54,0.13-0.77c0.12-0.24,0.33-0.49,0.63-0.78c-0.12-0.13-0.23-0.19-0.32-0.19 c-0.09,0.01-0.22,0.08-0.39,0.23L16.58,16.72z M13.36,20.72l1.34,1.08l-0.1,0.13c-0.17,0.21-0.31,0.35-0.44,0.42 c-0.12,0.07-0.26,0.1-0.4,0.08c-0.15-0.02-0.3-0.1-0.46-0.23c-0.23-0.19-0.36-0.38-0.38-0.58s0.06-0.42,0.26-0.66L13.36,20.72z M14.86,21.93l0.86,0.7c0.16,0.13,0.26,0.23,0.29,0.28c0.03,0.06,0.03,0.12,0.01,0.19c-0.01,0.07-0.08,0.18-0.19,0.32l0.08,0.07 l1.27-1.56l-0.08-0.07c-0.11,0.14-0.2,0.23-0.27,0.26s-0.13,0.04-0.19,0.02c-0.06-0.02-0.17-0.09-0.34-0.22l-1.98-1.61 c-0.16-0.13-0.26-0.23-0.29-0.28c-0.03-0.06-0.03-0.12-0.02-0.2c0.02-0.07,0.08-0.18,0.19-0.32l-0.08-0.07l-1.15,1.42 c-0.3,0.37-0.49,0.66-0.58,0.87c-0.09,0.21-0.11,0.43-0.05,0.65c0.05,0.22,0.17,0.4,0.35,0.56c0.23,0.18,0.48,0.25,0.76,0.21 c0.18-0.03,0.36-0.12,0.56-0.27l0.44,1.57c0.06,0.2,0.08,0.34,0.08,0.41c0,0.1-0.03,0.19-0.09,0.28l0.08,0.07l0.78-0.96l-0.6-2.11 L14.86,21.93z M10.96,24.77c-0.18-0.12-0.31-0.17-0.4-0.17c-0.09,0-0.19,0.08-0.3,0.25l-0.07,0.11L10.1,24.9l1.15-1.77l0.09,0.06 l-0.08,0.11c-0.1,0.15-0.13,0.27-0.11,0.36c0.03,0.09,0.14,0.2,0.34,0.32l2.17,1.41c0.2,0.13,0.35,0.19,0.44,0.18 c0.09-0.01,0.19-0.1,0.28-0.24l0.07-0.11l0.09,0.06l-1.15,1.77l-0.09-0.06l0.07-0.11c0.1-0.15,0.13-0.27,0.11-0.36 c-0.03-0.09-0.14-0.19-0.34-0.32l-1.79-1.16l1.07,2.35c0.16,0.1,0.28,0.16,0.38,0.16c0.1,0.01,0.2-0.08,0.31-0.25l0.07-0.11 l0.09,0.06L12.13,29l-0.09-0.06l0.07-0.11c0.1-0.15,0.13-0.27,0.11-0.36c-0.03-0.09-0.14-0.2-0.34-0.32l-2.17-1.41 c-0.2-0.13-0.34-0.19-0.42-0.19S9.11,26.64,9,26.81l-0.07,0.11l-0.09-0.06l1.15-1.77l0.09,0.06L10,25.26 c-0.1,0.15-0.13,0.27-0.1,0.36s0.14,0.2,0.33,0.32l1.81,1.17L10.96,24.77z M10.18,33.19l-0.1-0.04l0.04-0.09 c0.08-0.18,0.1-0.31,0.05-0.39c-0.05-0.08-0.18-0.16-0.38-0.26l-2.35-1.09c-0.21-0.1-0.36-0.14-0.45-0.12 c-0.09,0.02-0.17,0.11-0.24,0.27L6.7,31.58l-0.1-0.05l0.87-1.86l0.1,0.04l-0.03,0.07c-0.08,0.17-0.11,0.3-0.08,0.39 c0.03,0.08,0.16,0.18,0.39,0.29l2.37,1.11c0.18,0.08,0.29,0.12,0.33,0.11s0.11-0.11,0.19-0.29l0.24-0.53 c0.09-0.2,0.13-0.31,0.12-0.36c-0.01-0.04-0.11-0.11-0.28-0.19L8.44,29.2c-0.21-0.1-0.36-0.14-0.45-0.12 c-0.09,0.02-0.17,0.11-0.24,0.27l-0.05,0.1l-0.1-0.04l0.85-1.81l0.1,0.05l-0.03,0.07c-0.07,0.15-0.09,0.26-0.06,0.34 s0.16,0.18,0.39,0.28l2.35,1.09c0.22,0.1,0.37,0.14,0.46,0.12c0.09-0.02,0.17-0.11,0.24-0.27l0.03-0.07l1.14,0.53l-0.04,0.1 c-0.76-0.19-1.29,0.04-1.59,0.69L10.18,33.19z M8.2,34.66l-1.47,0.11l1.08,1.01L8.2,34.66z M8.44,34.63l-0.45,1.31l0.31,0.28 c0.1,0.1,0.19,0.15,0.27,0.18c0.11,0.04,0.2,0.02,0.27-0.05c0.05-0.04,0.11-0.15,0.19-0.34l0.1,0.04L8.7,37.29l-0.1-0.03 c0.03-0.14,0.01-0.27-0.05-0.39s-0.21-0.29-0.45-0.51L5.59,34l0.02-0.05l3.51-0.29c0.33-0.03,0.55-0.07,0.65-0.13 c0.08-0.04,0.14-0.12,0.19-0.23l0.1,0.04l-0.62,1.8l-0.1-0.04l0.03-0.07c0.05-0.14,0.07-0.25,0.04-0.33 c-0.02-0.05-0.05-0.08-0.11-0.1c-0.03-0.01-0.07-0.02-0.11-0.02c-0.02,0-0.1,0-0.23,0.01L8.44,34.63z M4.78,37.5l1.63,0.47 c0.02-0.06,0.04-0.11,0.05-0.14c0.07-0.23,0.05-0.42-0.05-0.58c-0.1-0.16-0.29-0.28-0.57-0.36s-0.5-0.08-0.67,0.01 C5,36.98,4.89,37.15,4.82,37.39L4.78,37.5z M6.63,38.03l1.05,0.3c0.2,0.06,0.34,0.08,0.4,0.07c0.06-0.01,0.12-0.04,0.17-0.1 c0.05-0.06,0.1-0.17,0.15-0.34L8.5,38l-0.55,1.92l-0.1-0.03c0.05-0.17,0.07-0.3,0.05-0.37c-0.01-0.07-0.04-0.13-0.09-0.17 c-0.05-0.04-0.17-0.09-0.37-0.15l-2.46-0.7c-0.2-0.06-0.34-0.08-0.4-0.07c-0.06,0.01-0.11,0.04-0.16,0.1 c-0.05,0.05-0.1,0.17-0.15,0.34l-0.1-0.03l0.47-1.65c0.16-0.54,0.37-0.9,0.63-1.08c0.26-0.18,0.54-0.23,0.83-0.15 c0.24,0.07,0.43,0.21,0.56,0.41s0.19,0.45,0.18,0.73C6.82,37.29,6.76,37.6,6.63,38.03z M3.88,41.69L5.45,42l0.01-0.08 c0.05-0.24,0.01-0.44-0.13-0.58C5.21,41.2,4.99,41.09,4.7,41l0.02-0.11l2.02,0.39l-0.02,0.11c-0.22-0.02-0.41-0.01-0.57,0.04 c-0.15,0.05-0.27,0.11-0.33,0.2c-0.07,0.09-0.12,0.22-0.15,0.41l1.09,0.21c0.21,0.04,0.34,0.06,0.39,0.05 c0.05-0.01,0.1-0.03,0.14-0.08c0.04-0.04,0.07-0.12,0.09-0.23l0.05-0.23c0.07-0.36,0.04-0.67-0.08-0.92S7,40.38,6.68,40.22 l0.02-0.1l1.19,0.41l-0.65,3.34l-0.1-0.02l0.02-0.13c0.02-0.11,0.02-0.2-0.01-0.28c-0.02-0.06-0.06-0.1-0.12-0.14 c-0.04-0.03-0.16-0.06-0.35-0.1l-2.54-0.5c-0.17-0.03-0.28-0.05-0.32-0.05c-0.07,0.01-0.13,0.03-0.17,0.08 c-0.07,0.06-0.11,0.16-0.14,0.28l-0.03,0.13l-0.11-0.02L4,39.89l1.14,0.22l-0.02,0.11c-0.29,0-0.5,0.04-0.65,0.12 c-0.14,0.08-0.26,0.2-0.35,0.37c-0.06,0.1-0.11,0.3-0.17,0.59L3.88,41.69z M3.43,45.2l-0.09,0.98l0.34,0.03 c0.47,0.04,0.92,0.11,1.37,0.21c0.44,0.1,0.78,0.22,1.03,0.35c0.25,0.13,0.45,0.3,0.61,0.5l0.12-1.4c0.02-0.19,0.01-0.3-0.01-0.34 c-0.03-0.04-0.11-0.06-0.25-0.07L3.43,45.2z M3.01,47.02l0.29-3.24l0.11,0.01c-0.01,0.24,0.01,0.4,0.07,0.47s0.19,0.12,0.4,0.13 l2.62,0.23c0.16,0.02,0.28,0.01,0.35-0.01c0.07-0.02,0.13-0.07,0.18-0.15c0.05-0.08,0.08-0.2,0.09-0.35l1.25,0.11l-0.01,0.11 c-0.34-0.01-0.63,0.09-0.86,0.3c-0.23,0.2-0.36,0.5-0.4,0.89L7,46.59c-0.03,0.4,0.04,0.73,0.21,1c0.18,0.26,0.45,0.43,0.81,0.5 L8.01,48.2l-1.25-0.11c-0.05-0.49-0.35-0.85-0.88-1.11c-0.53-0.25-1.26-0.42-2.17-0.5c-0.22-0.02-0.37,0.01-0.44,0.08 c-0.08,0.07-0.12,0.23-0.15,0.48L3.01,47.02z M3.15,50.45l1.6-0.03v-0.08c0-0.25-0.08-0.43-0.24-0.54s-0.39-0.18-0.7-0.2v-0.11 l2.06-0.04v0.11c-0.22,0.03-0.4,0.08-0.55,0.15c-0.14,0.08-0.24,0.17-0.28,0.27c-0.05,0.1-0.07,0.24-0.07,0.43l1.11-0.02 c0.22,0,0.35-0.01,0.4-0.04c0.05-0.02,0.09-0.05,0.12-0.1C6.63,50.2,6.64,50.12,6.64,50v-0.23c-0.01-0.37-0.1-0.66-0.27-0.88 s-0.43-0.37-0.78-0.46v-0.11l1.25,0.15l0.06,3.4H6.79v-0.13c0-0.11-0.03-0.2-0.07-0.27c-0.03-0.05-0.07-0.09-0.14-0.11 c-0.04-0.02-0.17-0.03-0.36-0.03l-2.59,0.04c-0.18,0-0.29,0.01-0.33,0.02c-0.07,0.02-0.12,0.06-0.16,0.11 c-0.05,0.08-0.08,0.18-0.08,0.3v0.13H2.95l-0.06-3.29l1.16-0.02v0.11c-0.28,0.08-0.48,0.16-0.6,0.27c-0.12,0.1-0.21,0.25-0.26,0.44 c-0.03,0.11-0.05,0.31-0.04,0.61V50.45z M4.03,55.43c0.04,0.25,0.11,0.43,0.2,0.52c0.1,0.1,0.23,0.17,0.42,0.21 c0.18,0.04,0.41,0.05,0.68,0.01c0.31-0.04,0.55-0.11,0.7-0.2c0.15-0.1,0.25-0.21,0.3-0.35s0.06-0.3,0.04-0.49L4.03,55.43z M6.25,54.21c-0.02-0.19-0.07-0.34-0.15-0.46c-0.07-0.12-0.21-0.2-0.4-0.26c-0.2-0.06-0.46-0.07-0.78-0.03 c-0.26,0.03-0.47,0.1-0.64,0.19c-0.17,0.1-0.28,0.21-0.33,0.33c-0.05,0.12-0.06,0.3-0.04,0.51L6.25,54.21z M3.33,56.07l-0.25-2.02 l0.11-0.01c0.03,0.22,0.08,0.36,0.14,0.42c0.06,0.06,0.19,0.08,0.38,0.07c-0.06-0.44-0.04-0.78,0.03-1.03 c0.07-0.24,0.2-0.46,0.39-0.65c0.18-0.19,0.42-0.3,0.72-0.34c0.37-0.05,0.71,0.05,1.03,0.29c0.31,0.24,0.52,0.7,0.6,1.38 c0.13-0.02,0.23-0.04,0.29-0.08s0.1-0.09,0.11-0.15c0.02-0.07,0.02-0.19,0.01-0.36L7,53.58l0.25,2.02H7.13 c-0.03-0.24-0.09-0.38-0.16-0.44c-0.08-0.05-0.2-0.07-0.39-0.05c0.06,0.45,0.04,0.82-0.06,1.09c-0.09,0.27-0.24,0.49-0.43,0.65 s-0.42,0.25-0.68,0.29c-0.28,0.03-0.54-0.02-0.78-0.15c-0.25-0.13-0.43-0.32-0.55-0.56c-0.12-0.24-0.2-0.56-0.25-0.97 c-0.17,0.02-0.29,0.07-0.34,0.15s-0.06,0.23-0.04,0.45L3.33,56.07z"></path> <path class="st1" d="M94.86,56.97l-1.73,0.88c-0.29,0.15-0.46,0.25-0.53,0.32s-0.11,0.16-0.13,0.26l-0.11-0.01l0.23-1.9l0.11,0.01 c-0.01,0.15,0,0.25,0.03,0.3s0.07,0.08,0.12,0.08c0.03,0,0.07,0,0.1-0.01c0.06-0.02,0.17-0.07,0.35-0.16l0.91-0.47l-0.65-0.69 c-0.2-0.2-0.34-0.31-0.42-0.32c-0.06-0.01-0.11,0.01-0.17,0.05c-0.05,0.04-0.1,0.1-0.13,0.19c-0.02,0.04-0.03,0.12-0.05,0.25 l-0.11-0.01l0.18-1.5l0.11,0.01c0,0.17,0.03,0.31,0.09,0.42c0.07,0.14,0.23,0.34,0.49,0.61l0.85,0.89l1.58-0.81 c0.26-0.13,0.4-0.21,0.43-0.23c0.07-0.04,0.12-0.09,0.16-0.13c0.03-0.05,0.06-0.11,0.08-0.2l0.11,0.02l-0.24,1.94l-0.11-0.01 l0.01-0.1c0.01-0.11,0.01-0.19-0.03-0.24c-0.03-0.05-0.07-0.08-0.12-0.08c-0.04,0-0.08,0-0.11,0.01l-0.33,0.16l-0.8,0.39l0.45,0.47 c0.23,0.24,0.4,0.37,0.5,0.38c0.05,0.01,0.1,0,0.15-0.03c0.05-0.02,0.09-0.06,0.12-0.11c0.03-0.05,0.05-0.14,0.07-0.26l0.11,0.01 l-0.18,1.44l-0.11-0.01c0.01-0.11,0.01-0.21-0.01-0.28c-0.02-0.07-0.06-0.15-0.12-0.24c-0.04-0.06-0.17-0.2-0.38-0.43L94.86,56.97z M94.39,52.32l1.36-0.56l-1.34-0.63L94.39,52.32z M94.17,52.42l0.03-1.39l-0.38-0.17c-0.13-0.06-0.23-0.09-0.31-0.09 c-0.11,0-0.19,0.04-0.24,0.13c-0.03,0.05-0.06,0.18-0.08,0.38h-0.11l0.02-1.31h0.11c0.02,0.14,0.08,0.26,0.17,0.35 s0.29,0.21,0.59,0.35l3.11,1.46v0.06l-3.25,1.36c-0.31,0.13-0.5,0.24-0.58,0.32c-0.06,0.07-0.1,0.16-0.11,0.28h-0.11l0.03-1.9h0.11 v0.08c0,0.15,0.02,0.26,0.06,0.32c0.03,0.04,0.08,0.07,0.13,0.07c0.04,0,0.07-0.01,0.11-0.02c0.02,0,0.09-0.03,0.22-0.08 L94.17,52.42z M96.94,45.57l0.07,2.05H96.9v-0.07c-0.01-0.19-0.04-0.32-0.12-0.38c-0.07-0.06-0.21-0.09-0.4-0.08l-1.17,0.04 c0.01,0.27,0.03,0.44,0.05,0.52c0.02,0.08,0.08,0.15,0.17,0.22s0.26,0.13,0.51,0.18c0.3,0.07,0.52,0.13,0.67,0.2 s0.27,0.16,0.36,0.28c0.09,0.12,0.14,0.28,0.15,0.46c0.01,0.19-0.04,0.34-0.14,0.45c-0.1,0.12-0.23,0.18-0.38,0.18 c-0.12,0-0.22-0.03-0.29-0.1s-0.11-0.17-0.11-0.28c-0.01-0.22,0.12-0.34,0.37-0.37c0.13-0.01,0.19-0.06,0.19-0.14 c0-0.09-0.05-0.16-0.16-0.22c-0.1-0.06-0.28-0.12-0.54-0.18c-0.25-0.06-0.44-0.11-0.57-0.16s-0.23-0.11-0.32-0.2 c-0.03,0.12-0.06,0.22-0.11,0.29s-0.11,0.13-0.19,0.19c-0.08,0.06-0.28,0.18-0.6,0.37l-0.7,0.42c-0.1,0.07-0.18,0.14-0.23,0.23 s-0.07,0.19-0.07,0.31h-0.11l-0.05-1.32l1.48-0.86c0.17-0.1,0.27-0.17,0.3-0.22c0.04-0.04,0.05-0.13,0.05-0.27l-1.33,0.05 c-0.19,0.01-0.31,0.05-0.36,0.13s-0.07,0.23-0.06,0.43h-0.11l-0.07-2.05h0.11c0.01,0.23,0.05,0.37,0.12,0.44s0.2,0.1,0.41,0.09 l2.63-0.09c0.23-0.01,0.38-0.04,0.46-0.1c0.08-0.06,0.11-0.19,0.11-0.39v-0.08L96.94,45.57z M94.5,43.06l-1.17,0.16 c-0.19,0.03-0.31,0.07-0.38,0.13s-0.09,0.16-0.07,0.3c0.03,0.22,0.13,0.38,0.3,0.48c0.17,0.09,0.36,0.12,0.59,0.09 c0.22-0.03,0.39-0.11,0.53-0.23c0.13-0.12,0.21-0.25,0.23-0.39C94.54,43.48,94.54,43.3,94.5,43.06z M94.76,43.03l0.07,0.51 c0.08,0.56,0.04,0.97-0.12,1.25s-0.4,0.44-0.73,0.49c-0.22,0.03-0.42-0.01-0.6-0.11c-0.18-0.11-0.32-0.25-0.43-0.43 s-0.19-0.46-0.24-0.83l-0.29-2.09l0.11-0.02c0.04,0.24,0.09,0.39,0.16,0.45c0.07,0.06,0.2,0.07,0.41,0.05l2.59-0.37 c0.28-0.04,0.44-0.09,0.5-0.16c0.05-0.06,0.06-0.22,0.03-0.46l0.11-0.02l0.28,2l-0.11,0.02c-0.03-0.18-0.06-0.3-0.1-0.36 s-0.09-0.09-0.14-0.11s-0.17-0.02-0.36,0.01L94.76,43.03z M93.56,38.37l-1.19,0.27c-0.2,0.05-0.32,0.08-0.36,0.12 c-0.04,0.03-0.08,0.08-0.1,0.16c-0.02,0.07-0.02,0.16,0,0.27l0.03,0.13l-0.1,0.02l-0.46-2l0.1-0.02l0.03,0.13 c0.03,0.11,0.07,0.2,0.12,0.25c0.04,0.04,0.09,0.07,0.16,0.08c0.05,0.01,0.17-0.01,0.36-0.05l2.52-0.58 c0.2-0.05,0.32-0.08,0.36-0.12c0.05-0.03,0.08-0.08,0.1-0.15s0.02-0.16,0-0.27l-0.03-0.13l0.11-0.02l0.46,2l-0.11,0.02l-0.03-0.13 c-0.02-0.11-0.07-0.2-0.12-0.26c-0.04-0.04-0.09-0.07-0.16-0.08c-0.05-0.01-0.17,0.01-0.36,0.05l-1.09,0.25l0.31,1.35l1.09-0.25 c0.2-0.04,0.32-0.08,0.36-0.12c0.04-0.03,0.08-0.08,0.1-0.16c0.02-0.07,0.02-0.16-0.01-0.27l-0.03-0.12l0.11-0.03l0.46,2 l-0.11,0.03l-0.03-0.12c-0.03-0.11-0.07-0.2-0.12-0.26c-0.04-0.04-0.09-0.07-0.16-0.08c-0.05-0.01-0.17,0.01-0.36,0.05l-2.52,0.58 c-0.2,0.04-0.32,0.08-0.36,0.12c-0.04,0.03-0.08,0.08-0.1,0.16c-0.02,0.07-0.02,0.16,0,0.27l0.03,0.12l-0.1,0.03l-0.46-2l0.1-0.03 l0.03,0.12c0.03,0.11,0.07,0.2,0.12,0.25c0.04,0.04,0.09,0.07,0.16,0.08c0.05,0.01,0.17-0.01,0.36-0.05l1.19-0.27L93.56,38.37z M94.11,33.84c-0.12-0.34-0.38-0.54-0.79-0.6c-0.33-0.05-0.77,0.02-1.3,0.21c-0.63,0.22-1.07,0.49-1.29,0.82 c-0.16,0.23-0.19,0.48-0.09,0.76c0.07,0.19,0.16,0.33,0.3,0.42c0.17,0.12,0.4,0.18,0.69,0.18s0.64-0.07,1.05-0.21 c0.49-0.17,0.85-0.34,1.06-0.52c0.21-0.17,0.35-0.35,0.4-0.53C94.18,34.21,94.18,34.03,94.11,33.84z M94.28,33.75 c0.23,0.58,0.22,1.12-0.02,1.62s-0.64,0.84-1.19,1.03c-0.47,0.16-0.93,0.17-1.39,0.01c-0.6-0.2-1.02-0.64-1.25-1.3 c-0.23-0.67-0.18-1.26,0.15-1.79c0.26-0.41,0.63-0.7,1.12-0.87c0.55-0.19,1.08-0.16,1.58,0.09C93.78,32.79,94.11,33.19,94.28,33.75 z M91.42,27.46l0.93,1.82l-0.09,0.05l-0.03-0.06c-0.09-0.17-0.18-0.27-0.27-0.3c-0.09-0.03-0.23,0.01-0.4,0.1L90.5,29.6 c0.12,0.24,0.21,0.39,0.26,0.46s0.13,0.11,0.24,0.13c0.11,0.02,0.29,0.01,0.54-0.05c0.29-0.07,0.53-0.1,0.69-0.11 c0.16,0,0.31,0.03,0.44,0.1c0.13,0.07,0.24,0.19,0.33,0.36c0.08,0.16,0.1,0.32,0.06,0.47s-0.13,0.26-0.27,0.33 c-0.11,0.05-0.21,0.06-0.3,0.03c-0.1-0.03-0.17-0.1-0.22-0.2c-0.1-0.2-0.04-0.36,0.18-0.49c0.11-0.07,0.15-0.13,0.11-0.21 s-0.12-0.12-0.23-0.13c-0.12-0.01-0.3,0.01-0.56,0.06c-0.26,0.05-0.45,0.08-0.58,0.09c-0.13,0.01-0.26,0-0.38-0.05 c0.03,0.12,0.04,0.23,0.02,0.31c-0.02,0.08-0.05,0.16-0.09,0.25c-0.05,0.08-0.18,0.28-0.39,0.59l-0.45,0.68 c-0.07,0.1-0.1,0.2-0.11,0.31c-0.01,0.1,0.02,0.2,0.07,0.31l-0.1,0.05l-0.6-1.17l0.97-1.41c0.11-0.16,0.17-0.27,0.18-0.32 c0.01-0.06-0.01-0.14-0.07-0.27l-1.19,0.61c-0.17,0.09-0.26,0.18-0.27,0.27c-0.01,0.09,0.03,0.24,0.13,0.42l-0.1,0.05l-0.93-1.82 l0.1-0.05c0.11,0.2,0.2,0.32,0.29,0.35c0.09,0.03,0.22,0,0.41-0.09l2.34-1.2c0.21-0.1,0.33-0.2,0.38-0.28 c0.05-0.09,0.02-0.22-0.07-0.39l-0.04-0.08L91.42,27.46z M87.23,25.53l0.82-1.23l-1.46,0.23L87.23,25.53z M87.1,25.73l-0.76-1.16 l-0.41,0.07c-0.13,0.02-0.24,0.06-0.31,0.1c-0.09,0.06-0.14,0.14-0.13,0.24c0,0.06,0.05,0.18,0.15,0.36l-0.09,0.06l-0.71-1.1 l0.09-0.06c0.1,0.11,0.21,0.17,0.34,0.19c0.13,0.03,0.36,0.01,0.68-0.04l3.4-0.53l0.03,0.05l-1.93,2.95 c-0.18,0.28-0.28,0.48-0.3,0.59c-0.01,0.09,0.01,0.19,0.07,0.29l-0.09,0.06l-1.04-1.6l0.09-0.06l0.04,0.07 c0.08,0.13,0.16,0.21,0.23,0.23c0.05,0.02,0.1,0.01,0.15-0.02c0.03-0.02,0.06-0.04,0.08-0.07c0.01-0.02,0.06-0.08,0.13-0.19 L87.1,25.73z"></path> <path class="st1" d="M80.2,81.26l-0.17-0.02c0.03-0.72,0.24-1.28,0.64-1.71c0.26-0.28,0.51-0.43,0.75-0.46s0.44,0.04,0.6,0.19 c0.17,0.16,0.27,0.35,0.29,0.57c0.02,0.22-0.04,0.54-0.18,0.98c-0.23,0.73-0.31,1.21-0.26,1.46c0.06,0.25,0.16,0.44,0.29,0.57 c0.15,0.14,0.32,0.2,0.51,0.19c0.19-0.02,0.37-0.12,0.54-0.3c0.24-0.26,0.36-0.62,0.38-1.11l0.18-0.02 c0.01,0.82-0.21,1.47-0.67,1.97c-0.29,0.31-0.57,0.49-0.85,0.54c-0.28,0.06-0.52-0.01-0.72-0.2c-0.19-0.18-0.29-0.4-0.29-0.67 c0-0.26,0.09-0.68,0.28-1.25c0.16-0.5,0.22-0.87,0.19-1.12s-0.13-0.44-0.29-0.59c-0.29-0.27-0.58-0.24-0.88,0.08 C80.36,80.56,80.24,80.86,80.2,81.26z M79.17,86.22c0.17,0.06,0.31,0.08,0.4,0.07c0.09-0.01,0.18-0.05,0.25-0.11 c0.08-0.07,0.13-0.15,0.17-0.26s0.05-0.27,0.05-0.49s-0.04-0.47-0.11-0.76c-0.07-0.28-0.19-0.58-0.35-0.88 c-0.16-0.3-0.34-0.57-0.54-0.8c-0.16-0.18-0.31-0.29-0.45-0.31c-0.14-0.03-0.26,0-0.35,0.08c-0.08,0.07-0.14,0.16-0.18,0.27 c-0.05,0.16-0.08,0.38-0.08,0.68L79.17,86.22z M76.22,83.95l1.01-1.23l0.22-0.19l0.35,0.73c0.05-0.45,0.12-0.78,0.21-1 s0.21-0.4,0.37-0.53c0.22-0.19,0.47-0.26,0.74-0.19s0.52,0.23,0.74,0.48c0.6,0.68,0.89,1.5,0.87,2.44 c-0.02,0.83-0.27,1.47-0.77,1.9c-0.09,0.08-0.17,0.13-0.25,0.17s-0.19,0.08-0.36,0.12l0.37,0.81c0.13,0.29,0.26,0.5,0.36,0.62 c0.07,0.08,0.14,0.11,0.23,0.11c0.09,0,0.25-0.07,0.47-0.21l0.08,0.16l-1.93,1.67l-0.08-0.16c0.15-0.14,0.23-0.3,0.25-0.48 s-0.06-0.47-0.24-0.85l-1.74-3.77c-0.13-0.28-0.24-0.47-0.32-0.56c-0.04-0.04-0.08-0.07-0.12-0.08s-0.09-0.01-0.13,0.01 c-0.05,0.02-0.14,0.09-0.27,0.21L76.22,83.95z M72.95,86.53l0.93-1.2c0.18,0.05,0.33,0.11,0.44,0.19c0.2,0.13,0.43,0.35,0.69,0.65 c0.51,0.59,1.04,1.24,1.58,1.93c0.01-0.56-0.02-1.26-0.1-2.11c-0.02-0.26-0.09-0.47-0.21-0.62c-0.07-0.1-0.2-0.15-0.39-0.15 s-0.32-0.01-0.38-0.04c-0.07-0.03-0.13-0.08-0.19-0.16c-0.09-0.13-0.13-0.27-0.1-0.43s0.1-0.29,0.24-0.39s0.3-0.14,0.49-0.11 c0.18,0.03,0.32,0.12,0.43,0.27c0.12,0.17,0.22,0.4,0.29,0.7c0.07,0.3,0.13,0.85,0.17,1.65c0.06,1.03,0.06,1.96,0,2.79 c-0.04,0.53-0.1,0.93-0.16,1.2c-0.07,0.27-0.16,0.51-0.28,0.73c-0.07,0.13-0.16,0.23-0.27,0.31c-0.15,0.11-0.31,0.15-0.49,0.12 s-0.32-0.11-0.42-0.25s-0.14-0.29-0.12-0.46s0.1-0.29,0.22-0.38c0.16-0.11,0.36-0.14,0.61-0.07c0.17,0.05,0.28,0.05,0.34,0.01 s0.1-0.1,0.14-0.17c0.05-0.1,0.09-0.27,0.12-0.52c-0.22-0.33-0.38-0.58-0.5-0.74c-0.16-0.22-0.39-0.52-0.71-0.9l-1.13-1.42 c-0.22-0.25-0.42-0.4-0.59-0.45c-0.13-0.04-0.26-0.01-0.38,0.07c-0.04,0.03-0.09,0.07-0.14,0.12L72.95,86.53z M71.37,87.13 c-0.17,0.1-0.26,0.3-0.29,0.59c-0.03,0.29,0.04,0.8,0.19,1.53c0.16,0.72,0.35,1.28,0.59,1.68c0.18,0.3,0.38,0.37,0.62,0.23 c0.25-0.15,0.33-0.67,0.22-1.54c-0.11-0.88-0.34-1.61-0.69-2.2C71.81,87.09,71.6,86.99,71.37,87.13z M71.68,84.1l0.15-0.09 c0.26,0.76,0.02,1.41-0.72,1.93c-0.31,0.22-0.52,0.4-0.64,0.53c-0.13,0.13-0.23,0.33-0.32,0.57c-0.09,0.25-0.13,0.51-0.13,0.8 c0,0.28,0.05,0.63,0.14,1.05c0.15-0.98,0.56-1.67,1.23-2.07c0.35-0.21,0.7-0.28,1.05-0.2c0.35,0.08,0.62,0.29,0.83,0.64 c0.42,0.69,0.53,1.48,0.35,2.36s-0.59,1.51-1.23,1.89c-0.35,0.21-0.68,0.27-1,0.19c-0.33-0.08-0.59-0.3-0.8-0.66 c-0.31-0.51-0.53-1.19-0.68-2.05c-0.15-0.85-0.19-1.55-0.13-2.1c0.07-0.55,0.2-0.97,0.41-1.27c0.21-0.3,0.53-0.59,0.96-0.88 c0.24-0.16,0.39-0.28,0.45-0.35C71.66,84.32,71.68,84.23,71.68,84.1z M67.47,93.16c0.15,0.1,0.27,0.16,0.36,0.17 c0.09,0.01,0.18,0,0.27-0.04s0.17-0.11,0.23-0.2c0.06-0.09,0.12-0.24,0.18-0.45s0.09-0.47,0.1-0.76s-0.02-0.61-0.09-0.94 c-0.07-0.34-0.17-0.64-0.3-0.92c-0.1-0.22-0.21-0.36-0.34-0.43s-0.24-0.07-0.36-0.02c-0.1,0.05-0.18,0.12-0.25,0.21 c-0.1,0.13-0.18,0.34-0.26,0.63L67.47,93.16z M65.26,90.17l1.31-0.9l0.26-0.12l0.13,0.79c0.17-0.42,0.33-0.71,0.48-0.9 c0.15-0.18,0.32-0.32,0.51-0.41c0.27-0.13,0.53-0.12,0.77,0.02s0.44,0.36,0.58,0.66c0.38,0.82,0.44,1.69,0.16,2.59 c-0.24,0.8-0.66,1.34-1.26,1.61c-0.11,0.05-0.2,0.08-0.29,0.1c-0.08,0.01-0.21,0.02-0.38,0.01l0.14,0.88 c0.05,0.32,0.11,0.55,0.18,0.7c0.04,0.09,0.11,0.15,0.2,0.17s0.26,0,0.51-0.07l0.03,0.18l-2.31,1.08l-0.03-0.18 c0.18-0.09,0.31-0.22,0.38-0.39s0.07-0.46,0-0.88L65.99,91c-0.05-0.31-0.1-0.51-0.15-0.63c-0.02-0.05-0.05-0.08-0.09-0.11 c-0.04-0.02-0.08-0.03-0.13-0.02c-0.05,0.01-0.16,0.05-0.32,0.12L65.26,90.17z M63.23,93.09c0.25-0.13,0.43-0.26,0.55-0.38 c0.12-0.12,0.22-0.28,0.31-0.47c0.09-0.2,0.14-0.43,0.16-0.69c0.02-0.26-0.01-0.49-0.08-0.69c-0.03-0.08-0.08-0.14-0.14-0.17 c-0.06-0.03-0.13-0.03-0.2-0.01c-0.14,0.05-0.27,0.21-0.37,0.47C63.25,91.64,63.18,92.28,63.23,93.09z M63.27,93.34 c0.04,0.2,0.09,0.37,0.13,0.49c0.08,0.22,0.21,0.38,0.39,0.46c0.18,0.09,0.37,0.09,0.59,0.01c0.21-0.08,0.4-0.2,0.57-0.38 s0.35-0.44,0.54-0.8l0.17,0.07c-0.19,0.54-0.42,0.95-0.68,1.24s-0.59,0.51-0.98,0.66c-0.5,0.18-0.88,0.19-1.16,0.02 c-0.28-0.17-0.47-0.41-0.58-0.72c-0.18-0.49-0.21-1.03-0.11-1.62c0.11-0.59,0.35-1.12,0.73-1.6c0.38-0.47,0.82-0.8,1.31-0.98 c0.25-0.09,0.46-0.1,0.63-0.03s0.29,0.2,0.36,0.38c0.08,0.22,0.1,0.45,0.04,0.7c-0.07,0.34-0.21,0.65-0.41,0.91 c-0.2,0.27-0.44,0.5-0.74,0.71C63.9,93.02,63.62,93.17,63.27,93.34z M56.81,92.17l-0.21,2.12c0.28-0.69,0.49-1.16,0.63-1.41 c0.21-0.37,0.39-0.61,0.55-0.75c0.16-0.13,0.32-0.21,0.5-0.25c0.2-0.04,0.36-0.01,0.47,0.1s0.19,0.23,0.21,0.37 c0.03,0.15,0.03,0.39,0.01,0.7l-0.07,0.79c0.28-0.7,0.49-1.17,0.63-1.41c0.21-0.37,0.41-0.63,0.59-0.78 c0.12-0.11,0.27-0.18,0.42-0.21c0.17-0.03,0.31,0,0.44,0.08c0.13,0.09,0.21,0.22,0.25,0.4c0.04,0.2,0.04,0.47,0.01,0.8l-0.18,1.84 c-0.03,0.27-0.03,0.45-0.02,0.52c0,0.02,0.02,0.04,0.04,0.06s0.05,0.02,0.07,0.02c0.03-0.01,0.06-0.02,0.08-0.05 c0.1-0.11,0.19-0.27,0.28-0.47c0.02-0.04,0.05-0.11,0.09-0.2l0.18,0.07c-0.14,0.44-0.32,0.78-0.54,1.02s-0.44,0.38-0.66,0.42 c-0.19,0.04-0.35,0.02-0.49-0.07c-0.13-0.08-0.21-0.19-0.24-0.33c-0.03-0.13-0.03-0.34,0-0.63L60.02,93 c0.02-0.27,0.03-0.43,0.02-0.49c0-0.02-0.02-0.04-0.04-0.06c-0.03-0.01-0.05-0.02-0.07-0.02c-0.04,0.01-0.08,0.03-0.12,0.05 c-0.05,0.04-0.13,0.14-0.23,0.29c-0.1,0.16-0.23,0.42-0.39,0.81c-0.16,0.38-0.27,0.67-0.33,0.88c-0.05,0.21-0.09,0.47-0.12,0.79 l-0.1,1.01l-1.18,0.23l0.28-3.21c0.01-0.17,0.02-0.29,0-0.35c0-0.02-0.02-0.04-0.04-0.06c-0.03-0.01-0.05-0.02-0.07-0.02 c-0.11,0.02-0.27,0.21-0.46,0.56c-0.29,0.54-0.52,1.17-0.71,1.88l-0.12,1.41l-1.19,0.23l0.29-3.17c0.03-0.31,0.03-0.53,0.01-0.65 c-0.01-0.05-0.03-0.09-0.06-0.12c-0.03-0.03-0.08-0.05-0.14-0.06c-0.06-0.01-0.17,0-0.33,0.03L55,92.81l1.54-0.58L56.81,92.17z M52.31,95.03c0.27-0.07,0.48-0.14,0.63-0.23c0.15-0.08,0.28-0.21,0.42-0.38c0.13-0.17,0.25-0.38,0.33-0.62 c0.09-0.25,0.12-0.48,0.1-0.69c-0.01-0.09-0.04-0.15-0.09-0.2c-0.05-0.05-0.12-0.07-0.19-0.06c-0.15,0.02-0.31,0.13-0.48,0.36 C52.71,93.63,52.47,94.23,52.31,95.03z M52.29,95.27c-0.01,0.21-0.01,0.38,0,0.51c0.02,0.24,0.11,0.42,0.26,0.55 c0.15,0.13,0.34,0.19,0.57,0.16c0.22-0.02,0.44-0.09,0.65-0.22c0.21-0.13,0.45-0.34,0.72-0.63l0.15,0.11 c-0.32,0.47-0.65,0.81-0.98,1.03c-0.33,0.22-0.7,0.34-1.12,0.38c-0.52,0.04-0.9-0.05-1.12-0.28c-0.23-0.24-0.35-0.52-0.38-0.85 c-0.04-0.52,0.06-1.05,0.32-1.59c0.26-0.54,0.63-0.99,1.12-1.35c0.49-0.36,1-0.56,1.52-0.61c0.26-0.02,0.47,0.02,0.62,0.14 c0.15,0.11,0.23,0.27,0.24,0.46c0.02,0.23-0.02,0.46-0.14,0.69c-0.16,0.31-0.37,0.57-0.63,0.78c-0.26,0.2-0.56,0.37-0.89,0.49 C52.98,95.14,52.67,95.21,52.29,95.27z M45.34,90.41l6.92,0.61l-0.06,0.17c-0.42-0.02-0.71,0.08-0.87,0.29s-0.34,0.58-0.54,1.11 l-1.28,3.34c-0.13,0.35-0.2,0.58-0.22,0.71c-0.02,0.24,0.2,0.4,0.67,0.46l-0.06,0.17L46.77,97l0.07-0.17 c0.36,0.03,0.61-0.02,0.75-0.16c0.14-0.14,0.32-0.47,0.53-1.01l1.72-4.49l-2.32-0.2l-1.76,4.57c-0.15,0.4-0.23,0.67-0.25,0.8 c-0.02,0.24,0.2,0.39,0.65,0.44l-0.07,0.17l-3.08-0.27l0.07-0.17c0.32,0.02,0.55-0.03,0.7-0.14c0.15-0.12,0.33-0.43,0.53-0.95 l1.38-3.55c0.15-0.39,0.24-0.65,0.25-0.78c0.02-0.28-0.2-0.44-0.69-0.49L45.34,90.41z M41,93.51l2.71,0.53l-0.48,0.91l-2.72-0.53 L41,93.51z M36.56,90.55l-1.15,1.79c0.57-0.49,0.97-0.81,1.21-0.97c0.35-0.23,0.63-0.37,0.83-0.41c0.2-0.05,0.38-0.04,0.56,0.01 c0.2,0.06,0.32,0.16,0.38,0.3c0.05,0.15,0.06,0.29,0.02,0.43c-0.04,0.15-0.15,0.36-0.31,0.62L37.68,93c0.57-0.5,0.97-0.82,1.2-0.97 c0.36-0.24,0.65-0.38,0.88-0.43c0.16-0.04,0.32-0.04,0.47,0.01c0.16,0.05,0.28,0.14,0.36,0.28s0.09,0.3,0.04,0.47 c-0.06,0.19-0.17,0.43-0.35,0.72l-1,1.56c-0.15,0.23-0.23,0.38-0.25,0.46c-0.01,0.02,0,0.05,0.01,0.08s0.03,0.04,0.06,0.05 c0.03,0.01,0.07,0.01,0.09-0.01c0.14-0.06,0.29-0.15,0.46-0.29c0.04-0.03,0.1-0.07,0.17-0.13l0.13,0.15 c-0.32,0.33-0.63,0.55-0.94,0.66c-0.3,0.11-0.56,0.14-0.78,0.08c-0.19-0.05-0.32-0.15-0.4-0.28s-0.11-0.27-0.07-0.41 c0.04-0.13,0.13-0.32,0.28-0.56l1.02-1.63c0.14-0.23,0.22-0.37,0.24-0.43c0.01-0.02,0-0.05-0.01-0.07 c-0.02-0.03-0.04-0.04-0.06-0.05c-0.04-0.01-0.08-0.01-0.13,0c-0.07,0.01-0.18,0.07-0.34,0.16c-0.16,0.1-0.39,0.27-0.71,0.54 c-0.32,0.26-0.55,0.48-0.69,0.64c-0.14,0.16-0.29,0.38-0.46,0.65l-0.55,0.86l-1.15-0.33l1.71-2.73c0.09-0.15,0.15-0.25,0.16-0.31 c0.01-0.02,0-0.04-0.01-0.07c-0.02-0.02-0.03-0.04-0.06-0.05c-0.11-0.03-0.33,0.07-0.66,0.29c-0.5,0.35-1,0.8-1.48,1.36l-0.74,1.2 l-1.16-0.34l1.7-2.69c0.17-0.26,0.27-0.46,0.3-0.58c0.01-0.05,0.02-0.1,0-0.14c-0.01-0.04-0.05-0.08-0.1-0.12 c-0.05-0.03-0.15-0.08-0.31-0.12l0.1-0.16l1.63,0.18L36.56,90.55z M32.26,88.84l-1.38,1.59c0.32,0.15,0.58,0.22,0.78,0.21 s0.47-0.16,0.83-0.44c0.42-0.33,0.73-0.53,0.93-0.59s0.38-0.05,0.54,0.02c0.14,0.07,0.24,0.16,0.29,0.28 c0.05,0.12,0.04,0.25-0.02,0.38s-0.16,0.22-0.28,0.27c-0.12,0.05-0.25,0.05-0.37-0.01c-0.09-0.04-0.16-0.11-0.22-0.22 s-0.11-0.17-0.14-0.19c-0.06-0.03-0.12-0.03-0.18,0.01c-0.07,0.03-0.21,0.13-0.45,0.32c-0.37,0.28-0.69,0.43-0.94,0.43 c0.15,0.16,0.25,0.32,0.28,0.48c0.03,0.15,0.06,0.59,0.08,1.32c0.01,0.32,0.02,0.52,0.04,0.59s0.08,0.14,0.19,0.21l-0.12,0.14 l-1.08-0.5l-0.05-1.49c-0.01-0.39-0.04-0.64-0.07-0.75c-0.03-0.11-0.1-0.19-0.21-0.24l-1.45,1.66l-1.08-0.5l2.15-2.47 c0.18-0.2,0.28-0.34,0.31-0.42c0.07-0.16-0.03-0.31-0.32-0.46l0.12-0.14l1.58,0.42L32.26,88.84z M28.93,87.33l1.02,0.61l-2.4,2.24 c-0.17,0.16-0.27,0.26-0.3,0.31c-0.04,0.07-0.03,0.12,0.03,0.15c0.11,0.07,0.39-0.02,0.83-0.24l0.1,0.2 c-0.52,0.26-0.92,0.39-1.18,0.39c-0.27,0-0.49-0.06-0.69-0.17c-0.17-0.11-0.28-0.23-0.3-0.38c-0.02-0.15,0-0.28,0.07-0.4 c0.06-0.1,0.23-0.28,0.5-0.53l0.7-0.65l-1.11-0.67l-1.63,1.51l-1.02-0.61l2.33-2.18c0.23-0.21,0.37-0.36,0.42-0.45 c0.05-0.08,0.06-0.15,0.03-0.21c-0.03-0.06-0.13-0.15-0.29-0.26l0.13-0.13l1.53,0.58l0.22,0.13l-1.54,1.44l1.11,0.67L28.93,87.33z M24.25,85.23c0.16-0.2,0.24-0.37,0.25-0.51c0-0.1-0.03-0.18-0.11-0.24s-0.19-0.09-0.33-0.08c-0.29,0.03-0.71,0.2-1.27,0.52 c-0.56,0.32-0.98,0.65-1.25,1c-0.1,0.13-0.16,0.24-0.16,0.34c0,0.09,0.02,0.16,0.08,0.2c0.11,0.09,0.28,0.11,0.49,0.07 c0.31-0.06,0.63-0.17,0.97-0.33C23.52,85.92,23.96,85.6,24.25,85.23z M26,85.45l-2.67,1.92l-0.31,0.24 c-0.04,0.03-0.06,0.06-0.08,0.07c-0.02,0.03-0.03,0.07-0.03,0.11s0.02,0.07,0.04,0.08c0.05,0.04,0.16,0.06,0.31,0.05 c0.06,0,0.24-0.05,0.54-0.13l0.08,0.17c-0.43,0.18-0.8,0.27-1.12,0.27c-0.32-0.01-0.59-0.11-0.82-0.29 c-0.14-0.11-0.22-0.23-0.24-0.36s0.02-0.26,0.11-0.37c0.08-0.1,0.26-0.25,0.54-0.45l0.33-0.23c-0.68,0.27-1.23,0.4-1.66,0.4 c-0.25,0-0.46-0.07-0.63-0.2c-0.23-0.18-0.32-0.4-0.28-0.67c0.04-0.27,0.16-0.52,0.35-0.76c0.27-0.35,0.7-0.67,1.27-0.96 s1.14-0.43,1.7-0.44c0.47-0.01,0.83,0.09,1.08,0.28c0.14,0.11,0.22,0.24,0.24,0.39s-0.03,0.34-0.16,0.59l0.49-0.35L26,85.45z M24.47,81.66l-1.76,1.14l-0.13-0.13c0.37-0.42,0.56-0.81,0.57-1.18s-0.13-0.7-0.42-0.98c-0.31-0.3-0.76-0.47-1.33-0.5 s-1.23,0.12-1.98,0.47c-0.61,0.28-1.12,0.64-1.55,1.08c-0.38,0.39-0.57,0.78-0.58,1.17s0.16,0.75,0.49,1.07 c0.27,0.26,0.58,0.44,0.91,0.54c0.34,0.1,0.75,0.12,1.23,0.08l0.16,0.16c-0.69,0.15-1.26,0.17-1.72,0.07 c-0.45-0.11-0.89-0.36-1.3-0.77c-0.56-0.54-0.84-1.14-0.86-1.81c-0.01-0.67,0.24-1.27,0.77-1.82c0.49-0.51,1.1-0.86,1.81-1.07 c0.72-0.2,1.47-0.2,2.25,0.01c0.78,0.2,1.43,0.55,1.93,1.04c0.19,0.18,0.39,0.45,0.59,0.81c0.11,0.18,0.19,0.3,0.24,0.36 c0.11,0.11,0.29,0.16,0.52,0.15L24.47,81.66z"></path> </g> </svg> 