<?xml version="1.0" encoding="UTF-8"?> <!-- Generator: Adobe Illustrator 24.2.0, SVG Export Plug-In . SVG Version: 6.00 Build 0) --> <svg xmlns="http://www.w3.org/2000/svg" xmlns:xlink="http://www.w3.org/1999/xlink" id="Layer_1" x="0px" y="0px" viewBox="0 0 30 30" style="enable-background:new 0 0 30 30;" xml:space="preserve"> <style type="text/css"> .st0{fill:#FFFFFF;} </style> <g> <g> <path class="st0" d="M28.25,6.39H1.75c-0.55,0-1-0.45-1-1s0.45-1,1-1h26.5c0.55,0,1,0.45,1,1S28.8,6.39,28.25,6.39z"></path> </g> <g> <path class="st0" d="M28.25,16.14H1.75c-0.55,0-1-0.45-1-1s0.45-1,1-1h26.5c0.55,0,1,0.45,1,1S28.8,16.14,28.25,16.14z"></path> </g> <g> <path class="st0" d="M28.25,25.89H1.75c-0.55,0-1-0.45-1-1s0.45-1,1-1h26.5c0.55,0,1,0.45,1,1S28.8,25.89,28.25,25.89z"></path> </g> </g> </svg> 