<?xml version="1.0" encoding="UTF-8"?> <!-- Generator: Adobe Illustrator 24.2.0, SVG Export Plug-In . SVG Version: 6.00 Build 0) --> <svg xmlns="http://www.w3.org/2000/svg" xmlns:xlink="http://www.w3.org/1999/xlink" id="Layer_1" x="0px" y="0px" viewBox="0 0 30 30" style="enable-background:new 0 0 30 30;" xml:space="preserve"> <style type="text/css"> .st0{fill:#FFFFFF;} </style> <g> <path class="st0" d="M22.1,25.7c-0.2,0-0.4-0.1-0.5-0.2l-6-4.1l-3.2,2.3c-0.3,0.2-0.6,0.2-0.9,0.1c-0.3-0.1-0.5-0.4-0.6-0.6 l-1.6-6.1l-5.8-2.2c-0.4-0.1-0.6-0.5-0.6-0.9s0.2-0.7,0.6-0.9l22-8.8c0.1,0,0.2-0.1,0.3-0.1c0,0,0.1,0,0.1,0c0.2,0,0.4,0.1,0.6,0.3 c0,0,0,0,0,0.1c0.1,0.2,0.2,0.4,0.2,0.6c0,0.1,0,0.1,0,0.2c0,0,0,0.1,0,0.1L23,24.9c-0.1,0.3-0.3,0.6-0.6,0.7 C22.4,25.7,22.2,25.7,22.1,25.7z M16.1,19.5l5.4,3.6L24.4,8L13.9,18L16.1,19.5C16.1,19.5,16.1,19.5,16.1,19.5z M11.6,18.7l0.7,2.7 l1.6-1.1l-2-1.4C11.8,18.9,11.7,18.8,11.6,18.7z M6.4,14l4,1.5c0.3,0.1,0.5,0.4,0.6,0.6l0.5,1.9c0-0.2,0.1-0.4,0.3-0.6l10-9.6 L6.4,14z"></path> </g> </svg> 