<?xml version="1.0" 
encoding="UTF-8"?> 
<!-- Generator: Adobe Illustrator 24.2.0, SVG Export Plug-In . SVG Version: 6.00 Build 0) --> <svg xmlns="http://www.w3.org/2000/svg" xmlns:xlink="http://www.w3.org/1999/xlink" id="Layer_1" x="0px" y="0px" viewBox="0 0 30 30" style="enable-background:new 0 0 30 30;" xml:space="preserve"> <style type="text/css"> .st0{fill:#FFFFFF;} </style> <path class="st0" d="M17.1,11.1c0,0.9,0,1.8,0,2.7c0,0.3,0.1,0.6,0.2,0.8c0.2,0.4,0.5,0.4,0.8,0.2c0.3-0.3,0.7-0.6,0.9-1 c0.6-1,1.3-2,1.9-3c0.4-0.7,0.7-1.5,1-2.2c0.2-0.4,0.5-0.7,1-0.7c1.5,0,3.1,0,4.6,0c0.7,0,1.1,0.4,0.8,1.2c-0.4,1.2-1.1,2.1-1.9,3.1 c-0.7,1-1.5,2-2.2,3c-0.5,0.8-0.5,1.3,0.2,2c0.5,0.6,1.1,1.1,1.7,1.7c0.8,0.8,1.5,1.6,2,2.6c0.4,0.7,0.1,1.3-0.7,1.5 c-0.2,0.1-0.5,0.1-0.7,0.1c-1.2,0-2.5,0-3.7,0c-0.6,0-1.1-0.2-1.5-0.6C21,22,20.5,21.5,20,21c-0.4-0.4-0.7-0.8-1.1-1.1 c-0.6-0.5-1.1-0.4-1.5,0.3c-0.3,0.5-0.4,1.1-0.4,1.7c0,0.4,0,0.7-0.3,0.9c-0.2,0.3-0.5,0.4-0.8,0.4c-0.7,0-1.5,0-2.2,0 c-1.4-0.1-2.6-0.5-3.8-1.2c-1.8-1-3.1-2.6-4.2-4.3c-0.7-1-1.3-2-1.9-3.1c-0.7-1.3-1.3-2.7-2-4c-0.2-0.5-0.5-1-0.7-1.5 C0.9,8.3,1.2,7.8,2,7.8c1.2,0,2.4,0,3.6,0c0.7,0,1.1,0.3,1.3,0.9c0.6,1.2,1.1,2.4,1.7,3.5c0.4,0.7,0.8,1.3,1.3,2 c0.2,0.2,0.4,0.5,0.6,0.6c0.3,0.3,0.6,0.2,0.8-0.1c0.1-0.1,0.2-0.3,0.2-0.4c0.1-0.5,0.2-1,0.2-1.6c0-1,0-1.9-0.1-2.9 c0-0.7-0.4-1.1-1-1.4c-0.6-0.3-0.6-0.7,0-0.9c0.4-0.2,1-0.3,1.5-0.4c1.1-0.1,2.1,0,3.2,0c0.3,0,0.6,0.1,0.9,0.2 c0.6,0.2,0.8,0.5,0.8,1.1C17.2,9.3,17.2,10.2,17.1,11.1C17.1,11.1,17.1,11.1,17.1,11.1z"></path> </svg> 